<?xml version="1.0" encoding="UTF-8" standalone="no"?>
<!DOCTYPE svg PUBLIC "-//W3C//DTD SVG 1.1//EN" "http://www.w3.org/Graphics/SVG/1.1/DTD/svg11.dtd">
<svg width="100%" height="100%" viewBox="0 0 5200 3250" version="1.1" xmlns="http://www.w3.org/2000/svg" xmlns:xlink="http://www.w3.org/1999/xlink" xml:space="preserve" xmlns:serif="http://www.serif.com/" style="fill-rule:evenodd;clip-rule:evenodd;stroke-linejoin:round;stroke-miterlimit:2;">
    <g transform="matrix(2,0,0,2,0,0)">
        <path d="M0,1625L0,0L2600,0L2600,5.703L2191.03,5.703C2191.03,5.703 2190.85,5.701 2190.5,5.701C2176.1,5.701 1875.47,8.779 1894.75,266.409C1908.68,452.543 1739.86,448.631 1574,459.11L1359.79,427.405C1357.74,427.103 1355.73,426.957 1353.74,426.957C1351.91,426.957 1350.1,427.082 1348.33,427.322C1346.44,427.082 1344.57,426.964 1342.74,426.964C1317.68,426.964 1298.05,448.788 1298.05,478.67L1298.05,558.87C1243.78,641.107 1309.86,746.261 1254.69,815.352C1183.58,904.412 1008.13,855.834 960.723,1006.43C913.311,1157.02 788.479,1223.41 553.396,1241.23C318.314,1259.04 347.105,1322.19 303.645,1412.87C260.183,1503.55 217.884,1625 0,1625ZM507.5,805C500.596,805 495,810.596 495,817.5C495,824.403 500.596,830 507.5,830C514.404,830 520,824.403 520,817.5C520,810.596 514.404,805 507.5,805ZM431.5,805C424.596,805 419,810.596 419,817.5C419,824.403 424.596,830 431.5,830C438.404,830 444,824.403 444,817.5C444,810.596 438.404,805 431.5,805ZM355.5,805C348.596,805 343,810.596 343,817.5C343,824.403 348.596,830 355.5,830C362.404,830 368,824.403 368,817.5C368,810.596 362.404,805 355.5,805ZM203.5,805C196.596,805 191,810.596 191,817.5C191,824.403 196.596,830 203.5,830C210.404,830 216,824.403 216,817.5C216,810.596 210.404,805 203.5,805ZM1085,363.416C1058.53,363.416 1037.06,384.877 1037.06,411.351C1037.06,437.825 1058.53,459.287 1085,459.287C1111.47,459.287 1132.94,437.825 1132.94,411.351C1132.94,384.877 1111.47,363.416 1085,363.416ZM1429.77,172.791C1417.01,172.791 1406.66,183.138 1406.66,195.902C1406.66,208.665 1417.01,219.012 1429.77,219.012C1442.54,219.012 1452.88,208.665 1452.88,195.902C1452.88,183.138 1442.54,172.791 1429.77,172.791Z" style="fill:url(#_Linear1);"/>
        <path d="M2600,1625L0,1625C217.884,1625 260.183,1503.55 303.645,1412.87C347.105,1322.19 318.314,1259.04 553.396,1241.23C788.479,1223.41 913.311,1157.02 960.723,1006.43C1008.13,855.834 1183.58,904.412 1254.69,815.352C1309.86,746.261 1243.78,641.107 1298.05,558.87L1298.05,1297.18C1298.05,1327.06 1317.69,1348.88 1342.74,1348.88C1344.58,1348.88 1346.44,1348.76 1348.33,1348.52C1350.1,1348.76 1351.91,1348.89 1353.74,1348.89C1355.73,1348.89 1357.74,1348.74 1359.79,1348.44L1660.13,1303.99C1682.43,1300.69 1700.28,1274.73 1700.28,1245.97L1700.28,768.286C1727.54,784.069 1741.41,798.729 1744.18,801.824C1744.36,802.07 1744.53,802.271 1744.7,802.427C1751.87,813.815 1766.54,815.173 1773.14,815.173C1775.2,815.173 1776.47,815.04 1776.47,815.04C1778.24,815.009 1779.63,814.052 1780.8,811.842C1781.97,809.631 1782.91,806.165 1783.82,801.124C1785.16,793.666 1786.29,783.047 1787.18,769.56C1788.16,754.726 1788.79,737.278 1789.07,718.262C1789.31,701.909 1789.28,684.398 1788.97,666.396C1788.64,647.24 1788.01,628.648 1787.13,611.428C1786.22,593.649 1785.04,577.334 1783.63,563.356C1782.27,549.91 1780.78,539.335 1779.18,531.927C1777.05,521.992 1774.94,518.271 1771.45,518.271C1771.42,518.271 1771.39,518.271 1771.36,518.272C1771.36,518.272 1770.71,518.226 1769.58,518.226C1765.73,518.226 1756.35,518.76 1748.55,523.472L1748.55,523.31C1748.55,523.31 1748.46,523.421 1748.28,523.635C1745.09,525.614 1742.18,528.309 1740.04,531.971C1739.75,532.254 1739.47,532.675 1739.19,533.227C1731.36,540.789 1718.53,551.866 1700.28,563.558L1700.28,529.878C1700.28,501.115 1682.43,475.157 1660.13,471.857L1574,459.11C1739.86,448.631 1908.68,452.543 1894.75,266.409C1875.47,8.779 2176.1,5.701 2190.5,5.701C2190.85,5.701 2191.03,5.703 2191.03,5.703L2600,5.703L2600,1625ZM1797.16,936.446C1784.39,936.446 1774.05,946.793 1774.05,959.557C1774.05,972.32 1784.39,982.668 1797.16,982.668C1809.92,982.668 1820.27,972.32 1820.27,959.557C1820.27,946.793 1809.92,936.446 1797.16,936.446ZM1896.59,644.146L1896.59,871.364L2211.07,871.364L2211.07,644.146L1896.59,644.146Z" style="fill:url(#_Linear2);"/>
        <path d="M2465,1321.95L2465,1343.48C2465,1344.35 2464.64,1345.22 2463.93,1346.08L2463.93,1324.55C2464.64,1323.69 2465,1322.83 2465,1321.95Z" style="fill:rgb(33,105,43);fill-rule:nonzero;"/>
        <path d="M2465,1321.95C2465,1322.87 2464.59,1323.78 2463.8,1324.69C2463.64,1324.87 2463.47,1325.06 2463.28,1325.24L2463.02,1325.48C2462.83,1325.65 2462.63,1325.82 2462.41,1325.99C2462.31,1326.06 2462.22,1326.14 2462.12,1326.21C2461.82,1326.43 2461.5,1326.65 2461.16,1326.87L2461.08,1326.93C2460.7,1327.17 2460.29,1327.4 2459.86,1327.64C2459.7,1327.73 2459.53,1327.82 2459.36,1327.91C2459.13,1328.02 2458.9,1328.14 2458.67,1328.26C2458.48,1328.35 2458.28,1328.45 2458.08,1328.54C2457.83,1328.66 2457.59,1328.77 2457.33,1328.89C2457.12,1328.98 2456.9,1329.08 2456.68,1329.17C2456.42,1329.29 2456.15,1329.4 2455.87,1329.52C2455.64,1329.61 2455.4,1329.7 2455.16,1329.8C2454.88,1329.91 2454.58,1330.03 2454.28,1330.14C2454.03,1330.23 2453.78,1330.33 2453.52,1330.42C2453.21,1330.53 2452.89,1330.65 2452.57,1330.76C2452.3,1330.85 2452.03,1330.95 2451.76,1331.04C2451.42,1331.15 2451.08,1331.27 2450.74,1331.38C2450.45,1331.47 2450.16,1331.57 2449.87,1331.66C2449.51,1331.77 2449.14,1331.88 2448.78,1332C2448.47,1332.09 2448.18,1332.18 2447.87,1332.27C2447.48,1332.39 2447.08,1332.5 2446.69,1332.61C2446.36,1332.71 2446.04,1332.8 2445.71,1332.89C2445.46,1332.96 2445.21,1333.03 2444.96,1333.1C2444.53,1333.22 2444.1,1333.33 2443.66,1333.45C2443.39,1333.52 2443.11,1333.59 2442.83,1333.66C2442.39,1333.78 2441.94,1333.89 2441.49,1334.01C2441.21,1334.08 2440.93,1334.15 2440.65,1334.22C2440.16,1334.34 2439.66,1334.46 2439.16,1334.58C2438.9,1334.64 2438.64,1334.7 2438.37,1334.77C2437.76,1334.91 2437.14,1335.05 2436.51,1335.2C2436.34,1335.23 2436.18,1335.27 2436.01,1335.31C2435.2,1335.49 2434.38,1335.67 2433.55,1335.85C2433.33,1335.9 2433.1,1335.94 2432.88,1335.99C2432.26,1336.12 2431.63,1336.26 2430.99,1336.39C2430.68,1336.45 2430.36,1336.52 2430.04,1336.58C2429.47,1336.7 2428.9,1336.81 2428.33,1336.93C2427.97,1337 2427.62,1337.07 2427.26,1337.14C2426.7,1337.25 2426.13,1337.36 2425.55,1337.47C2425.19,1337.54 2424.82,1337.6 2424.45,1337.67C2423.85,1337.79 2423.23,1337.9 2422.62,1338.01C2422.27,1338.08 2421.93,1338.14 2421.58,1338.2C2420.84,1338.34 2420.1,1338.47 2419.35,1338.6C2419.11,1338.64 2418.86,1338.69 2418.62,1338.73C2417.61,1338.91 2416.58,1339.08 2415.54,1339.26C2415.35,1339.29 2415.16,1339.32 2414.96,1339.35C2414.12,1339.49 2413.26,1339.64 2412.39,1339.78C2412.03,1339.84 2411.65,1339.9 2411.29,1339.96C2410.58,1340.07 2409.87,1340.18 2409.14,1340.3C2408.72,1340.36 2408.3,1340.43 2407.87,1340.49C2407.18,1340.6 2406.49,1340.71 2405.79,1340.81C2405.34,1340.88 2404.9,1340.95 2404.46,1341.02C2403.74,1341.12 2403.01,1341.23 2402.28,1341.34C2401.85,1341.4 2401.42,1341.47 2400.99,1341.53C2400.17,1341.65 2399.34,1341.77 2398.51,1341.88C2398.15,1341.94 2397.8,1341.99 2397.44,1342.04C2396.25,1342.21 2395.04,1342.37 2393.81,1342.54C2393.67,1342.56 2393.52,1342.58 2393.38,1342.6C2392.3,1342.75 2391.21,1342.9 2390.11,1343.04C2389.68,1343.1 2389.24,1343.16 2388.81,1343.21C2387.98,1343.32 2387.14,1343.43 2386.29,1343.54C2385.79,1343.61 2385.3,1343.67 2384.8,1343.73C2384,1343.83 2383.19,1343.94 2382.37,1344.04C2381.85,1344.11 2381.33,1344.17 2380.8,1344.24C2379.98,1344.34 2379.16,1344.44 2378.33,1344.54C2377.81,1344.6 2377.29,1344.67 2376.77,1344.73C2375.85,1344.84 2374.92,1344.95 2373.98,1345.06C2373.55,1345.11 2373.13,1345.16 2372.7,1345.21C2371.33,1345.38 2369.95,1345.54 2368.55,1345.7L2368.52,1345.7C2367.11,1345.86 2365.69,1346.02 2364.26,1346.18C2363.79,1346.23 2363.31,1346.28 2362.84,1346.34C2361.87,1346.44 2360.89,1346.55 2359.91,1346.66C2359.35,1346.72 2358.8,1346.78 2358.24,1346.84C2357.31,1346.94 2356.38,1347.04 2355.45,1347.13C2354.86,1347.2 2354.27,1347.26 2353.67,1347.32C2352.75,1347.42 2351.82,1347.51 2350.88,1347.61C2350.29,1347.67 2349.71,1347.73 2349.11,1347.79C2348.1,1347.9 2347.08,1348 2346.06,1348.1C2345.54,1348.15 2345.01,1348.21 2344.48,1348.26C2343.19,1348.39 2341.89,1348.52 2340.58,1348.64C2340.32,1348.67 2340.05,1348.7 2339.79,1348.72C2338.22,1348.87 2336.63,1349.03 2335.04,1349.18C2334.55,1349.22 2334.05,1349.27 2333.56,1349.31C2332.43,1349.42 2331.3,1349.53 2330.15,1349.63C2329.55,1349.69 2328.94,1349.74 2328.34,1349.8C2327.29,1349.9 2326.25,1349.99 2325.2,1350.09C2324.55,1350.14 2323.89,1350.2 2323.24,1350.26C2322.2,1350.35 2321.16,1350.45 2320.11,1350.54C2319.46,1350.6 2318.81,1350.65 2318.17,1350.71C2317.07,1350.81 2315.97,1350.9 2314.87,1351C2314.24,1351.05 2313.62,1351.1 2312.99,1351.16C2311.72,1351.26 2310.43,1351.37 2309.15,1351.48C2308.7,1351.52 2308.26,1351.56 2307.81,1351.59C2306.07,1351.74 2304.32,1351.88 2302.55,1352.03C2302.13,1352.06 2301.69,1352.09 2301.27,1352.13C2299.92,1352.24 2298.57,1352.35 2297.21,1352.46C2296.57,1352.51 2295.91,1352.56 2295.27,1352.61C2294.11,1352.7 2292.95,1352.79 2291.78,1352.88C2291.07,1352.94 2290.36,1352.99 2289.64,1353.05C2288.49,1353.14 2287.34,1353.22 2286.18,1353.31C2285.48,1353.37 2284.79,1353.42 2284.09,1353.47C2282.89,1353.56 2281.68,1353.65 2280.47,1353.74C2279.79,1353.79 2279.12,1353.84 2278.44,1353.89C2277.07,1353.99 2275.69,1354.09 2274.31,1354.19C2273.8,1354.23 2273.29,1354.27 2272.78,1354.3C2270.88,1354.44 2268.96,1354.58 2267.04,1354.71C2266.68,1354.74 2266.31,1354.76 2265.94,1354.79C2264.38,1354.9 2262.82,1355.01 2261.24,1355.12C2260.55,1355.16 2259.85,1355.21 2259.16,1355.26C2257.9,1355.34 2256.64,1355.43 2255.37,1355.51C2254.59,1355.57 2253.81,1355.62 2253.03,1355.67C2251.8,1355.75 2250.58,1355.83 2249.34,1355.92C2248.56,1355.97 2247.77,1356.02 2246.98,1356.07C2245.72,1356.15 2244.45,1356.23 2243.18,1356.32C2242.43,1356.36 2241.68,1356.41 2240.92,1356.46C2239.51,1356.55 2238.09,1356.64 2236.67,1356.73C2236.04,1356.77 2235.42,1356.81 2234.79,1356.85C2232.76,1356.97 2230.71,1357.1 2228.65,1357.23C2228.39,1357.24 2228.13,1357.26 2227.88,1357.27C2226.05,1357.38 2224.21,1357.49 2222.36,1357.6C2221.7,1357.64 2221.03,1357.68 2220.36,1357.72C2218.94,1357.81 2217.51,1357.89 2216.07,1357.97C2215.25,1358.02 2214.42,1358.07 2213.59,1358.12C2212.29,1358.19 2210.99,1358.27 2209.69,1358.34C2208.82,1358.39 2207.96,1358.44 2207.1,1358.49C2205.75,1358.57 2204.4,1358.64 2203.05,1358.72C2202.24,1358.76 2201.43,1358.81 2200.62,1358.85C2199.17,1358.93 2197.7,1359.01 2196.23,1359.09C2195.51,1359.13 2194.79,1359.17 2194.06,1359.21C2192.04,1359.32 2190.02,1359.43 2187.99,1359.53C2187.82,1359.54 2187.65,1359.55 2187.48,1359.56C2185.28,1359.68 2183.08,1359.79 2180.86,1359.91C2180.12,1359.94 2179.38,1359.98 2178.63,1360.02C2177.13,1360.1 2175.62,1360.17 2174.11,1360.25C2173.26,1360.29 2172.41,1360.33 2171.56,1360.38C2170.14,1360.45 2168.72,1360.52 2167.3,1360.59C2166.38,1360.63 2165.47,1360.68 2164.55,1360.72C2163.16,1360.79 2161.77,1360.86 2160.38,1360.92C2159.48,1360.97 2158.58,1361.01 2157.67,1361.05C2156.15,1361.13 2154.62,1361.2 2153.09,1361.27C2152.31,1361.31 2151.54,1361.34 2150.76,1361.38C2148.81,1361.47 2146.86,1361.56 2144.9,1361.65C2144.53,1361.67 2144.15,1361.68 2143.78,1361.7C2141.45,1361.81 2139.12,1361.91 2136.77,1362.02C2136.03,1362.05 2135.28,1362.08 2134.54,1362.11C2132.91,1362.19 2131.27,1362.26 2129.63,1362.33C2128.75,1362.37 2127.86,1362.4 2126.97,1362.44C2125.47,1362.51 2123.96,1362.57 2122.44,1362.64C2121.49,1362.68 2120.54,1362.72 2119.58,1362.76C2118.1,1362.82 2116.62,1362.88 2115.13,1362.94C2114.18,1362.98 2113.23,1363.02 2112.27,1363.06C2110.76,1363.12 2109.23,1363.18 2107.71,1363.24C2106.78,1363.28 2105.86,1363.32 2104.93,1363.35C2103.12,1363.43 2101.31,1363.5 2099.49,1363.57C2098.87,1363.59 2098.25,1363.62 2097.63,1363.64C2095.16,1363.74 2092.69,1363.83 2090.2,1363.92C2089.66,1363.95 2089.1,1363.97 2088.55,1363.99C2086.65,1364.06 2084.73,1364.13 2082.82,1364.2C2081.87,1364.24 2080.92,1364.27 2079.98,1364.3C2078.42,1364.36 2076.85,1364.42 2075.28,1364.47C2074.27,1364.51 2073.26,1364.55 2072.25,1364.58C2070.71,1364.64 2069.16,1364.69 2067.61,1364.75C2066.62,1364.78 2065.63,1364.82 2064.63,1364.85C2063,1364.91 2061.36,1364.96 2059.72,1365.02C2058.8,1365.05 2057.88,1365.08 2056.96,1365.11C2055.14,1365.17 2053.31,1365.23 2051.48,1365.29C2050.73,1365.32 2049.99,1365.34 2049.24,1365.37C2046.67,1365.45 2044.1,1365.53 2041.52,1365.62C2041.06,1365.63 2040.58,1365.65 2040.12,1365.66C2038.01,1365.73 2035.9,1365.79 2033.78,1365.86C2032.84,1365.89 2031.89,1365.92 2030.94,1365.95C2029.27,1366 2027.59,1366.05 2025.91,1366.1C2024.86,1366.13 2023.81,1366.16 2022.76,1366.19C2021.16,1366.24 2019.55,1366.29 2017.95,1366.33C2016.91,1366.36 2015.87,1366.39 2014.82,1366.42C2013.16,1366.47 2011.5,1366.52 2009.83,1366.56C2008.81,1366.59 2007.79,1366.62 2006.77,1366.65C2005.02,1366.7 2003.27,1366.75 2001.52,1366.79C2000.59,1366.82 1999.67,1366.85 1998.74,1366.87C1996.07,1366.94 1993.41,1367.01 1990.73,1367.08L1990.63,1367.09C1987.97,1367.16 1985.31,1367.22 1982.64,1367.29C1981.78,1367.31 1980.92,1367.33 1980.06,1367.36C1978.22,1367.4 1976.37,1367.45 1974.52,1367.49C1973.47,1367.52 1972.41,1367.54 1971.35,1367.57C1969.66,1367.61 1967.96,1367.65 1966.26,1367.69C1965.2,1367.72 1964.13,1367.74 1963.07,1367.77C1961.33,1367.81 1959.59,1367.85 1957.85,1367.88C1956.81,1367.91 1955.77,1367.93 1954.73,1367.96C1952.89,1368 1951.04,1368.04 1949.18,1368.08C1948.26,1368.1 1947.34,1368.12 1946.42,1368.14C1943.94,1368.19 1941.46,1368.25 1938.96,1368.3C1938.67,1368.3 1938.38,1368.31 1938.09,1368.31C1935.32,1368.37 1932.53,1368.43 1929.74,1368.48C1928.86,1368.5 1927.98,1368.52 1927.11,1368.54C1925.18,1368.57 1923.25,1368.61 1921.32,1368.65C1920.22,1368.67 1919.12,1368.69 1918.02,1368.71C1916.32,1368.74 1914.61,1368.77 1912.9,1368.81C1911.72,1368.83 1910.54,1368.85 1909.36,1368.87C1907.63,1368.9 1905.89,1368.93 1904.15,1368.96C1903.07,1368.98 1901.98,1369 1900.89,1369.02C1899.03,1369.05 1897.17,1369.08 1895.3,1369.11C1894.29,1369.13 1893.28,1369.15 1892.27,1369.16C1890.01,1369.2 1887.75,1369.24 1885.48,1369.27C1884.88,1369.28 1884.29,1369.29 1883.68,1369.3C1880.83,1369.35 1877.98,1369.39 1875.11,1369.43C1874.26,1369.44 1873.41,1369.46 1872.56,1369.47C1870.51,1369.5 1868.46,1369.53 1866.4,1369.56C1865.32,1369.57 1864.24,1369.59 1863.16,1369.6C1861.34,1369.63 1859.51,1369.65 1857.68,1369.67C1856.55,1369.69 1855.41,1369.71 1854.27,1369.72C1852.42,1369.74 1850.57,1369.77 1848.72,1369.79C1847.63,1369.8 1846.53,1369.82 1845.43,1369.83C1843.53,1369.85 1841.62,1369.88 1839.71,1369.9C1838.66,1369.91 1837.62,1369.92 1836.57,1369.93C1834.33,1369.96 1832.09,1369.98 1829.85,1370.01C1829.15,1370.02 1828.46,1370.02 1827.76,1370.03C1824.81,1370.06 1821.85,1370.09 1818.88,1370.12C1818.23,1370.13 1817.57,1370.13 1816.92,1370.14C1814.6,1370.16 1812.29,1370.18 1809.96,1370.21C1808.9,1370.21 1807.82,1370.22 1806.75,1370.23C1804.87,1370.25 1802.99,1370.27 1801.11,1370.28C1799.88,1370.29 1798.66,1370.3 1797.44,1370.31C1795.65,1370.33 1793.86,1370.34 1792.06,1370.35C1790.83,1370.36 1789.6,1370.37 1788.37,1370.38C1786.53,1370.39 1784.68,1370.41 1782.84,1370.42C1781.68,1370.42 1780.52,1370.43 1779.37,1370.44C1777.25,1370.45 1775.12,1370.47 1773,1370.48C1772.12,1370.48 1771.25,1370.49 1770.38,1370.5C1767.36,1370.51 1764.33,1370.53 1761.3,1370.54C1760.85,1370.54 1760.4,1370.55 1759.95,1370.55C1757.37,1370.56 1754.79,1370.57 1752.2,1370.58C1751.18,1370.59 1750.16,1370.59 1749.14,1370.59C1747.1,1370.6 1745.06,1370.61 1743.02,1370.62C1741.86,1370.62 1740.71,1370.63 1739.56,1370.63C1737.67,1370.63 1735.79,1370.64 1733.9,1370.64C1732.67,1370.65 1731.43,1370.65 1730.2,1370.65C1728.28,1370.66 1726.35,1370.66 1724.42,1370.67L1720.99,1370.67C1718.88,1370.67 1716.77,1370.68 1714.65,1370.68L1711.75,1370.68C1708.67,1370.68 1705.59,1370.69 1702.5,1370.69C1281.38,1370.69 940,1348.87 940,1321.95L940,1343.48C940,1370.39 1281.38,1392.21 1702.5,1392.21L1711.75,1392.21C1712.72,1392.21 1713.69,1392.2 1714.65,1392.2C1716.77,1392.2 1718.88,1392.2 1720.99,1392.19L1724.42,1392.19C1726.35,1392.19 1728.28,1392.18 1730.2,1392.18C1731.43,1392.17 1732.67,1392.17 1733.9,1392.17C1735.79,1392.16 1737.67,1392.16 1739.56,1392.15C1740.71,1392.15 1741.86,1392.14 1743.02,1392.14C1745.06,1392.13 1747.1,1392.13 1749.14,1392.12C1750.16,1392.12 1751.18,1392.11 1752.2,1392.11C1754.79,1392.1 1757.37,1392.08 1759.95,1392.07L1761.3,1392.07C1764.33,1392.05 1767.36,1392.04 1770.38,1392.02C1771.25,1392.01 1772.12,1392.01 1773,1392C1775.12,1391.99 1777.25,1391.98 1779.37,1391.96C1780.52,1391.96 1781.68,1391.95 1782.84,1391.94C1784.68,1391.93 1786.53,1391.92 1788.37,1391.9C1789.6,1391.89 1790.83,1391.88 1792.06,1391.88C1793.86,1391.86 1795.65,1391.85 1797.44,1391.83C1798.66,1391.83 1799.88,1391.82 1801.11,1391.8C1802.99,1391.79 1804.87,1391.77 1806.75,1391.76C1807.82,1391.75 1808.9,1391.74 1809.96,1391.73C1812.29,1391.71 1814.6,1391.69 1816.92,1391.66C1817.57,1391.66 1818.23,1391.65 1818.88,1391.65C1821.85,1391.62 1824.81,1391.59 1827.76,1391.55C1828.46,1391.55 1829.15,1391.54 1829.85,1391.53C1832.09,1391.51 1834.33,1391.48 1836.57,1391.46C1837.62,1391.45 1838.66,1391.43 1839.71,1391.42C1841.62,1391.4 1843.53,1391.38 1845.43,1391.35C1846.53,1391.34 1847.63,1391.33 1848.72,1391.31C1850.57,1391.29 1852.42,1391.27 1854.27,1391.24C1855.41,1391.23 1856.55,1391.21 1857.68,1391.2C1859.51,1391.17 1861.34,1391.15 1863.16,1391.13C1864.24,1391.11 1865.32,1391.1 1866.4,1391.08C1868.46,1391.05 1870.51,1391.02 1872.56,1390.99C1873.41,1390.98 1874.26,1390.97 1875.11,1390.96C1877.98,1390.91 1880.83,1390.87 1883.68,1390.83C1884.29,1390.82 1884.88,1390.81 1885.48,1390.8C1887.75,1390.76 1890.01,1390.72 1892.27,1390.69C1893.28,1390.67 1894.29,1390.65 1895.3,1390.64C1897.17,1390.61 1899.03,1390.58 1900.89,1390.54C1901.98,1390.52 1903.07,1390.5 1904.15,1390.49C1905.89,1390.46 1907.63,1390.42 1909.36,1390.39C1910.54,1390.37 1911.72,1390.35 1912.9,1390.33C1914.61,1390.3 1916.32,1390.27 1918.02,1390.23C1919.12,1390.21 1920.22,1390.19 1921.32,1390.17C1923.25,1390.14 1925.18,1390.1 1927.11,1390.06C1927.98,1390.04 1928.86,1390.03 1929.74,1390.01C1932.53,1389.95 1935.32,1389.9 1938.09,1389.84C1938.38,1389.83 1938.67,1389.83 1938.96,1389.82C1941.46,1389.77 1943.94,1389.72 1946.42,1389.66C1947.34,1389.64 1948.26,1389.62 1949.18,1389.6C1951.04,1389.56 1952.89,1389.52 1954.73,1389.48C1955.77,1389.46 1956.81,1389.43 1957.85,1389.41C1959.59,1389.37 1961.33,1389.33 1963.07,1389.29C1964.13,1389.26 1965.2,1389.24 1966.26,1389.21C1967.96,1389.17 1969.66,1389.13 1971.35,1389.09C1972.41,1389.07 1973.47,1389.04 1974.52,1389.02C1976.37,1388.97 1978.22,1388.93 1980.06,1388.88C1980.92,1388.86 1981.78,1388.84 1982.64,1388.82C1985.31,1388.75 1987.97,1388.68 1990.63,1388.61L1990.73,1388.61C1993.41,1388.54 1996.08,1388.47 1998.74,1388.39C1999.67,1388.37 2000.59,1388.34 2001.52,1388.32C2003.27,1388.27 2005.02,1388.22 2006.77,1388.17C2007.79,1388.15 2008.81,1388.12 2009.83,1388.09C2011.5,1388.04 2013.16,1387.99 2014.82,1387.95C2015.87,1387.92 2016.91,1387.89 2017.95,1387.86C2019.55,1387.81 2021.16,1387.76 2022.76,1387.71C2023.81,1387.68 2024.86,1387.65 2025.91,1387.62C2027.59,1387.57 2029.27,1387.52 2030.94,1387.47C2031.89,1387.44 2032.84,1387.41 2033.78,1387.38C2035.9,1387.32 2038.01,1387.25 2040.12,1387.18C2040.58,1387.17 2041.06,1387.15 2041.52,1387.14C2044.1,1387.06 2046.67,1386.97 2049.24,1386.89C2049.99,1386.87 2050.73,1386.84 2051.48,1386.82C2053.31,1386.76 2055.14,1386.7 2056.96,1386.63C2057.88,1386.6 2058.8,1386.57 2059.72,1386.54C2061.36,1386.49 2063,1386.43 2064.63,1386.37C2065.63,1386.34 2066.62,1386.3 2067.61,1386.27C2069.16,1386.22 2070.71,1386.16 2072.25,1386.11C2073.26,1386.07 2074.27,1386.03 2075.28,1386C2076.85,1385.94 2078.42,1385.88 2079.98,1385.83C2080.92,1385.79 2081.87,1385.76 2082.82,1385.72C2084.73,1385.65 2086.65,1385.58 2088.55,1385.51C2089.1,1385.49 2089.66,1385.47 2090.2,1385.45C2092.69,1385.36 2095.16,1385.26 2097.63,1385.16C2098.25,1385.14 2098.87,1385.12 2099.49,1385.09C2101.31,1385.02 2103.12,1384.95 2104.93,1384.88C2105.86,1384.84 2106.78,1384.8 2107.71,1384.77C2109.23,1384.71 2110.76,1384.64 2112.27,1384.58C2113.23,1384.54 2114.18,1384.5 2115.13,1384.46C2116.62,1384.4 2118.1,1384.34 2119.58,1384.28C2120.54,1384.24 2121.49,1384.2 2122.44,1384.16C2123.96,1384.1 2125.47,1384.03 2126.97,1383.97C2127.86,1383.93 2128.75,1383.89 2129.63,1383.85C2131.27,1383.78 2132.91,1383.71 2134.54,1383.64C2135.28,1383.6 2136.03,1383.57 2136.77,1383.54C2139.12,1383.44 2141.45,1383.33 2143.78,1383.22C2144.15,1383.21 2144.53,1383.19 2144.9,1383.17C2146.86,1383.08 2148.81,1382.99 2150.76,1382.9C2151.54,1382.87 2152.31,1382.83 2153.09,1382.79C2154.62,1382.72 2156.15,1382.65 2157.67,1382.58C2158.58,1382.54 2159.48,1382.49 2160.38,1382.45C2161.77,1382.38 2163.16,1382.31 2164.55,1382.25C2165.47,1382.2 2166.38,1382.16 2167.3,1382.11C2168.72,1382.04 2170.14,1381.97 2171.56,1381.9C2172.41,1381.86 2173.26,1381.82 2174.11,1381.77C2175.62,1381.7 2177.13,1381.62 2178.63,1381.54C2179.38,1381.5 2180.12,1381.47 2180.86,1381.43C2183.08,1381.32 2185.28,1381.2 2187.48,1381.08C2187.65,1381.08 2187.82,1381.07 2187.99,1381.06C2190.02,1380.95 2192.04,1380.84 2194.06,1380.73C2194.79,1380.69 2195.51,1380.65 2196.23,1380.62C2197.7,1380.54 2199.17,1380.46 2200.62,1380.38C2201.43,1380.33 2202.24,1380.29 2203.05,1380.24C2204.4,1380.17 2205.75,1380.09 2207.1,1380.01C2207.96,1379.96 2208.82,1379.92 2209.69,1379.87C2210.99,1379.79 2212.29,1379.72 2213.59,1379.64C2214.42,1379.59 2215.25,1379.55 2216.07,1379.5C2217.51,1379.42 2218.94,1379.33 2220.36,1379.25C2221.03,1379.21 2221.7,1379.17 2222.36,1379.13C2224.21,1379.02 2226.05,1378.91 2227.88,1378.8C2228.13,1378.78 2228.39,1378.77 2228.65,1378.75C2230.71,1378.62 2232.76,1378.5 2234.79,1378.37C2235.42,1378.33 2236.04,1378.29 2236.67,1378.25C2238.09,1378.16 2239.51,1378.07 2240.92,1377.98C2241.68,1377.94 2242.43,1377.89 2243.18,1377.84C2244.45,1377.76 2245.72,1377.68 2246.98,1377.59C2247.77,1377.54 2248.56,1377.49 2249.34,1377.44C2250.58,1377.36 2251.8,1377.28 2253.03,1377.19C2253.81,1377.14 2254.59,1377.09 2255.37,1377.04C2256.64,1376.95 2257.9,1376.87 2259.16,1376.78C2259.85,1376.73 2260.55,1376.69 2261.24,1376.64C2262.82,1376.53 2264.38,1376.42 2265.94,1376.31C2266.31,1376.29 2266.68,1376.26 2267.04,1376.24C2268.96,1376.1 2270.88,1375.96 2272.78,1375.83C2273.29,1375.79 2273.8,1375.75 2274.31,1375.72C2275.69,1375.62 2277.07,1375.52 2278.44,1375.42C2279.12,1375.37 2279.79,1375.32 2280.47,1375.26C2281.68,1375.17 2282.89,1375.08 2284.09,1374.99C2284.79,1374.94 2285.48,1374.89 2286.18,1374.84C2287.34,1374.75 2288.49,1374.66 2289.64,1374.57C2290.36,1374.52 2291.07,1374.46 2291.78,1374.41C2292.95,1374.32 2294.11,1374.22 2295.27,1374.13C2295.91,1374.08 2296.57,1374.03 2297.21,1373.98C2298.57,1373.87 2299.92,1373.76 2301.27,1373.65C2301.69,1373.62 2302.13,1373.58 2302.55,1373.55C2304.32,1373.41 2306.07,1373.26 2307.81,1373.12C2308.26,1373.08 2308.7,1373.04 2309.15,1373C2310.43,1372.9 2311.72,1372.79 2312.99,1372.68C2313.62,1372.63 2314.24,1372.57 2314.87,1372.52C2315.97,1372.42 2317.07,1372.33 2318.17,1372.23C2318.81,1372.18 2319.46,1372.12 2320.11,1372.06C2321.16,1371.97 2322.2,1371.88 2323.24,1371.79C2323.89,1371.73 2324.55,1371.67 2325.2,1371.61C2326.25,1371.51 2327.29,1371.42 2328.34,1371.32C2328.94,1371.27 2329.55,1371.21 2330.15,1371.16C2331.3,1371.05 2332.43,1370.95 2333.56,1370.84C2334.05,1370.79 2334.55,1370.75 2335.04,1370.7C2336.63,1370.55 2338.22,1370.4 2339.79,1370.25C2340.05,1370.22 2340.32,1370.19 2340.58,1370.17C2341.89,1370.04 2343.19,1369.91 2344.48,1369.78C2345.01,1369.73 2345.54,1369.68 2346.06,1369.62C2347.08,1369.52 2348.1,1369.42 2349.11,1369.32C2349.71,1369.26 2350.29,1369.2 2350.88,1369.13C2351.82,1369.04 2352.75,1368.94 2353.67,1368.85C2354.27,1368.78 2354.86,1368.72 2355.45,1368.66C2356.38,1368.56 2357.31,1368.46 2358.24,1368.36C2358.8,1368.3 2359.35,1368.24 2359.91,1368.18C2360.89,1368.07 2361.87,1367.97 2362.84,1367.86C2363.31,1367.81 2363.79,1367.76 2364.26,1367.7C2365.69,1367.54 2367.11,1367.38 2368.52,1367.22L2368.55,1367.22C2369.95,1367.06 2371.33,1366.9 2372.7,1366.74C2373.13,1366.69 2373.55,1366.64 2373.98,1366.59C2374.92,1366.48 2375.85,1366.37 2376.77,1366.25C2377.29,1366.19 2377.81,1366.13 2378.33,1366.06C2379.16,1365.96 2379.98,1365.86 2380.8,1365.76C2381.33,1365.69 2381.85,1365.63 2382.37,1365.56C2383.19,1365.46 2384,1365.36 2384.8,1365.26C2385.3,1365.19 2385.79,1365.13 2386.29,1365.07C2387.14,1364.96 2387.98,1364.85 2388.81,1364.74C2389.24,1364.68 2389.68,1364.62 2390.11,1364.57C2391.21,1364.42 2392.3,1364.27 2393.38,1364.13C2393.52,1364.11 2393.67,1364.09 2393.81,1364.07C2395.04,1363.9 2396.25,1363.73 2397.44,1363.56C2397.8,1363.51 2398.15,1363.46 2398.51,1363.41C2399.34,1363.29 2400.17,1363.17 2400.99,1363.05C2401.42,1362.99 2401.85,1362.93 2402.28,1362.86C2403.01,1362.76 2403.74,1362.65 2404.46,1362.54C2404.9,1362.47 2405.34,1362.41 2405.79,1362.34C2406.49,1362.23 2407.18,1362.13 2407.87,1362.02C2408.3,1361.95 2408.72,1361.89 2409.14,1361.82C2409.87,1361.71 2410.58,1361.59 2411.29,1361.48C2411.65,1361.42 2412.03,1361.36 2412.39,1361.3C2413.26,1361.16 2414.12,1361.02 2414.96,1360.88C2415.16,1360.84 2415.35,1360.81 2415.54,1360.78C2416.58,1360.61 2417.61,1360.43 2418.62,1360.25C2418.86,1360.21 2419.11,1360.17 2419.35,1360.12C2420.1,1359.99 2420.84,1359.86 2421.58,1359.73C2421.93,1359.67 2422.27,1359.6 2422.62,1359.54C2423.23,1359.42 2423.85,1359.31 2424.45,1359.2C2424.82,1359.13 2425.19,1359.06 2425.55,1358.99C2426.13,1358.88 2426.7,1358.77 2427.26,1358.66C2427.62,1358.59 2427.97,1358.52 2428.33,1358.45C2428.9,1358.34 2429.47,1358.22 2430.04,1358.11C2430.36,1358.04 2430.68,1357.98 2430.99,1357.91C2431.63,1357.78 2432.26,1357.65 2432.88,1357.52C2433.1,1357.47 2433.33,1357.42 2433.55,1357.37C2434.38,1357.19 2435.2,1357.01 2436.01,1356.83C2436.18,1356.8 2436.34,1356.76 2436.51,1356.72C2437.14,1356.58 2437.76,1356.43 2438.37,1356.29C2438.64,1356.23 2438.9,1356.16 2439.16,1356.1C2439.66,1355.98 2440.16,1355.86 2440.65,1355.74C2440.93,1355.67 2441.21,1355.6 2441.49,1355.53C2441.94,1355.42 2442.39,1355.3 2442.83,1355.19C2443.11,1355.12 2443.39,1355.04 2443.66,1354.97C2444.1,1354.86 2444.53,1354.74 2444.96,1354.62C2445.21,1354.55 2445.46,1354.49 2445.71,1354.42C2445.8,1354.39 2445.91,1354.36 2446.01,1354.34C2446.24,1354.27 2446.46,1354.2 2446.69,1354.14C2447.08,1354.02 2447.48,1353.91 2447.87,1353.8C2448.18,1353.7 2448.47,1353.61 2448.78,1353.52C2449.14,1353.41 2449.51,1353.3 2449.87,1353.18C2450.16,1353.09 2450.45,1353 2450.74,1352.9C2451.08,1352.79 2451.42,1352.68 2451.76,1352.57C2452.03,1352.47 2452.3,1352.38 2452.57,1352.28C2452.89,1352.17 2453.21,1352.06 2453.52,1351.95C2453.78,1351.85 2454.03,1351.76 2454.28,1351.66C2454.58,1351.55 2454.88,1351.44 2455.16,1351.32C2455.4,1351.23 2455.64,1351.13 2455.87,1351.04C2456.15,1350.92 2456.42,1350.81 2456.68,1350.69C2456.9,1350.6 2457.12,1350.51 2457.33,1350.41C2457.59,1350.3 2457.83,1350.18 2458.08,1350.06C2458.28,1349.97 2458.48,1349.88 2458.67,1349.78C2458.9,1349.67 2459.13,1349.55 2459.36,1349.43C2459.48,1349.36 2459.63,1349.29 2459.75,1349.23L2459.86,1349.16C2460.29,1348.93 2460.7,1348.69 2461.08,1348.45L2461.16,1348.4C2461.5,1348.18 2461.82,1347.96 2462.12,1347.74C2462.22,1347.66 2462.31,1347.59 2462.41,1347.51C2462.63,1347.34 2462.83,1347.17 2463.02,1347L2463.28,1346.76C2463.47,1346.58 2463.64,1346.4 2463.8,1346.21L2463.93,1346.08L2463.93,1346.07C2464.64,1345.21 2465,1344.35 2465,1343.48L2465,1321.95Z" style="fill:url(#_Linear3);"/>
        <path d="M1702.5,1273.22C2123.62,1273.22 2465,1295.04 2465,1321.95C2465,1348.87 2123.62,1370.69 1702.5,1370.69C1281.38,1370.69 940,1348.87 940,1321.95C940,1295.04 1281.38,1273.22 1702.5,1273.22Z" style="fill:url(#_Linear4);"/>
        <path d="M1337.61,1310.2C1337.61,1310.2 1391.59,1151.7 1341.51,1059.35C1280.08,946.115 1217.22,914.088 1217.22,914.088C1217.22,914.088 1092,1125.9 1337.61,1310.2Z" style="fill:url(#_Linear5);"/>
        <path d="M1262.65,978.052L1260.3,981.194L1235.57,1014.24C1218.3,946.745 1217.22,914.088 1217.22,914.088C1216.52,945.556 1220.14,979.139 1226.43,1012.87L1203.82,993.498L1228.94,1025.67C1232.12,1041.14 1235.82,1056.58 1239.89,1071.82L1208.63,1037.46L1243.27,1084.19C1246.78,1096.65 1250.51,1108.92 1254.36,1120.92L1206.93,1076.38L1260.31,1138.92C1265.91,1155.43 1271.69,1171.26 1277.4,1186.12L1234.9,1156.41L1286.22,1208.54C1292.31,1223.62 1298.15,1237.34 1303.42,1249.32L1259.42,1209.54L1310.59,1270.61C1319.18,1287.2 1329.99,1304.36 1329.99,1304.36L1337.61,1310.2L1341.6,1297.24C1333.97,1284.94 1327.99,1275 1322.48,1262.29L1333.46,1199.84L1315.37,1243.21C1309.8,1230.04 1304.55,1217.3 1299.59,1204.95L1324.36,1133.9L1292.67,1187.51C1285.88,1170.13 1279.7,1153.62 1274.07,1137.94L1299.27,1072.89L1268.76,1122.94C1263.99,1109.24 1259.65,1096.24 1255.72,1083.93L1277.1,1014.79L1250.32,1066.65C1245.45,1050.7 1241.29,1036.02 1237.75,1022.62L1262.65,978.052Z" style="fill:rgb(20,145,115);fill-rule:nonzero;"/>
        <path d="M1346.42,1301.41C1346.42,1301.41 1208.38,1338.18 1132.68,1290.2C1039.85,1231.36 1016.23,1176 1016.23,1176C1016.23,1176 1203.78,1081.68 1346.42,1301.41Z" style="fill:url(#_Linear6);"/>
        <path d="M1068.05,1218.37L1070.86,1216.55L1100.42,1197.42C1043.97,1178.81 1016.23,1176 1016.23,1176C1043.06,1177.23 1071.43,1182.25 1099.78,1189.56L1084.6,1169.19L1110.53,1192.43C1123.52,1196.04 1136.45,1200.08 1149.18,1204.43L1121.75,1175.83L1159.51,1208.03C1169.91,1211.73 1180.14,1215.62 1190.13,1219.59L1154.97,1176.64L1205.11,1225.7C1218.84,1231.42 1231.97,1237.26 1244.29,1242.97L1221.47,1205.08L1262.87,1251.78C1275.35,1257.84 1286.69,1263.61 1296.58,1268.79L1265.27,1229.03L1314.29,1276.12C1327.91,1284.4 1341.89,1294.59 1341.89,1294.59L1346.42,1301.41L1335.16,1304.06C1325.13,1296.85 1317.02,1291.18 1306.52,1285.76L1252.73,1291.49L1290.69,1278.6C1279.81,1273.1 1269.26,1267.89 1259.03,1262.96L1197.13,1279.92L1244.59,1256.06C1230.2,1249.27 1216.5,1243.05 1203.48,1237.35L1146.65,1255.04L1191.02,1231.96C1179.64,1227.11 1168.82,1222.67 1158.57,1218.6L1098.48,1232.8L1144.17,1213.01C1130.87,1207.94 1118.62,1203.55 1107.42,1199.76L1068.05,1218.37Z" style="fill:rgb(20,145,115);fill-rule:nonzero;"/>
        <path d="M1342.13,1304.68C1342.13,1304.68 1219.35,1278.84 1179.01,1211.25C1129.54,1128.36 1132.94,1075.61 1132.94,1075.61C1132.94,1075.61 1317.32,1075.94 1342.13,1304.68Z" style="fill:url(#_Linear7);"/>
        <path d="M1156.79,1129.34L1159.71,1129.03L1190.46,1125.74C1153.57,1088.8 1132.94,1075.61 1132.94,1075.61C1153.49,1087.2 1173.74,1102.37 1193.07,1119.33L1189.24,1097.35L1200.36,1125.84C1209.11,1133.8 1217.65,1142.1 1225.91,1150.55L1215.73,1117.26L1232.59,1157.46C1239.27,1164.48 1245.75,1171.58 1252,1178.65L1241.45,1131.05L1261.33,1189.37C1269.83,1199.29 1277.81,1209.07 1285.21,1218.43L1282.32,1179.69L1296.28,1232.69C1303.67,1242.38 1310.27,1251.39 1315.97,1259.37L1307.18,1215.8L1326.95,1272.13C1334.36,1284.01 1341.28,1297.54 1341.28,1297.54L1342.13,1304.68L1332.25,1302.3C1327.24,1292.67 1323.13,1285.02 1317.04,1276.61L1272.61,1259.8L1307.47,1264.73C1301.12,1256.11 1294.91,1247.85 1288.85,1239.93L1233.6,1228.72L1280.26,1228.8C1271.66,1217.78 1263.39,1207.48 1255.44,1197.86L1203.88,1189.21L1247.8,1188.7C1240.8,1180.38 1234.08,1172.62 1227.65,1165.38L1174.92,1152.71L1218.58,1155.29C1210.17,1146.05 1202.3,1137.76 1195.02,1130.35L1156.79,1129.34Z" style="fill:rgb(20,145,115);fill-rule:nonzero;"/>
        <path d="M1353.74,1348.89C1351.91,1348.89 1350.1,1348.76 1348.33,1348.52C1346.44,1348.76 1344.58,1348.88 1342.74,1348.88C1317.69,1348.88 1298.05,1327.06 1298.05,1297.18L1298.05,478.67C1298.05,448.788 1317.68,426.964 1342.74,426.964C1344.57,426.964 1346.44,427.082 1348.33,427.322C1350.1,427.082 1351.91,426.957 1353.74,426.957C1355.73,426.957 1357.74,427.103 1359.79,427.405L1574,459.11L1660.13,471.857C1682.43,475.157 1700.28,501.115 1700.28,529.878L1700.28,563.558C1695.5,566.62 1690.36,569.721 1684.83,572.815L1684.83,527.848C1684.83,510.155 1673.82,494.256 1660.13,492.319L1359.79,449.811C1358.57,449.639 1357.38,449.555 1356.2,449.555C1341.32,449.555 1329.68,462.959 1329.68,481.213L1329.68,1294.64C1329.68,1312.89 1341.32,1326.29 1356.2,1326.29C1357.38,1326.29 1358.57,1326.21 1359.79,1326.04L1660.13,1283.53C1673.82,1281.59 1684.83,1265.69 1684.83,1247.99L1684.83,760.003C1690.4,762.763 1695.54,765.539 1700.28,768.286L1700.28,1245.97C1700.28,1274.73 1682.43,1300.69 1660.13,1303.99L1359.79,1348.44C1357.74,1348.74 1355.73,1348.89 1353.74,1348.89Z" style="fill:url(#_Linear8);"/>
        <path d="M1356.2,1326.29C1341.32,1326.29 1329.68,1312.89 1329.68,1294.64L1329.68,481.213C1329.68,462.959 1341.32,449.555 1356.2,449.555C1357.38,449.555 1358.57,449.639 1359.79,449.811L1660.13,492.319C1673.82,494.256 1684.83,510.155 1684.83,527.848L1684.83,572.815C1644.63,595.311 1584.42,617.286 1501.41,618.718C1500.25,618.736 1499.18,620.541 1498.24,623.754L1494.56,623.754C1470.72,623.754 1450.98,641.288 1447.52,664.163C1445.94,671.122 1446.09,693.183 1463.8,707.612C1472.09,714.65 1482.83,718.896 1494.56,718.896L1499.84,718.896C1500.36,720.524 1500.91,721.792 1501.48,722.652C1502.21,723.846 1502.78,724.025 1503.06,724.025C1503.18,724.025 1503.24,723.992 1503.24,723.992C1503.45,723.978 1503.68,723.962 1503.95,723.947C1506.82,723.901 1509.66,723.879 1512.47,723.879C1513.93,723.879 1515.37,723.884 1516.81,723.896L1516.81,723.897C1516.77,723.896 1516.75,723.896 1516.75,723.896C1516.75,723.896 1516.75,724.936 1516.77,726.863C1516.68,735.922 1516.82,750.789 1518.07,768.042L1518.07,768.055C1518.33,773.298 1518.87,778.913 1519.55,784.526C1522.06,807.48 1526.71,832.523 1535.22,853.038C1537.21,857.825 1541.78,861.024 1546.93,861.288C1547.34,861.31 1547.76,861.331 1548.19,861.351L1512.87,1002.91C1511.22,1002.44 1509.56,1002.21 1507.92,1002.21C1500.17,1002.21 1492.93,1007.22 1490.54,1015.13C1471.85,1076.98 1455.16,1147.45 1459.02,1191.53C1460.72,1211.01 1480.95,1216.56 1503.44,1216.56C1533.19,1216.56 1566.89,1206.85 1566.89,1206.85C1563.28,1190.48 1569.77,1139.33 1576.34,1096.57C1580.53,1069.33 1570.75,1042.63 1551.69,1024.53C1551.56,1024.18 1551.46,1023.94 1551.41,1023.82L1580.2,860.178C1589.29,859.062 1598.98,857.123 1608.28,853.879C1616.57,850.977 1619.78,840.904 1614.84,833.633C1603.87,817.532 1586.56,786.143 1578.38,739.515L1576.63,728.206C1592.91,730.516 1610.94,733.952 1629.78,739.023C1629.79,739.026 1629.79,739.028 1629.8,739.03C1651.41,745.126 1669.67,752.487 1684.83,760.003L1684.83,1247.99C1684.83,1265.69 1673.82,1281.59 1660.13,1283.53L1359.79,1326.04C1358.57,1326.21 1357.38,1326.29 1356.2,1326.29Z" style="fill:url(#_Linear9);"/>
        <path d="M1312.3,722.528C1309.27,722.528 1306.82,720.428 1306.82,717.836L1306.82,614.618C1306.82,612.027 1309.27,609.927 1312.3,609.927C1313.81,609.927 1315.18,610.452 1316.17,611.301C1317.16,612.15 1317.77,613.323 1317.77,614.618L1317.77,717.836C1317.77,719.132 1317.16,720.305 1316.17,721.154C1315.18,722.003 1313.81,722.528 1312.3,722.528Z" style="fill:url(#_Linear10);"/>
        <path d="M1505.1,1038.17L1532.23,816.531L1560.62,820.376L1549.76,1020.03L1505.1,1038.17Z" style="fill:url(#_Linear11);"/>
        <path d="M1532.33,817.46C1532.33,817.46 1535.04,812.554 1527.94,802.217C1520.85,791.88 1526.28,782.068 1531.19,784.784C1536.09,787.499 1538.28,795.121 1538.28,795.121L1546.96,770.632C1548.4,766.561 1553.47,765.276 1556.72,768.116C1562.53,773.184 1569.96,781.919 1570.96,793.982C1572.62,814.131 1561.07,824.156 1561.07,824.156L1532.33,817.46Z" style="fill:url(#_Linear12);"/>
        <path d="M1499.84,718.896L1494.56,718.896C1482.83,718.896 1472.09,714.65 1463.8,707.612C1463.84,707.645 1463.88,707.678 1463.92,707.711C1475.62,717.185 1487.39,718.813 1494.09,718.813C1497.28,718.813 1499.33,718.444 1499.67,718.377C1499.73,718.554 1499.78,718.726 1499.84,718.896ZM1499.63,718.234C1497.1,714.579 1496.23,700.757 1496.01,696.314C1496.9,705.703 1498.17,713.375 1499.63,718.234ZM1494.92,694.937C1456.4,694.937 1447.52,664.151 1447.52,664.151L1447.52,664.163C1450.98,641.288 1470.72,623.754 1494.56,623.754L1498.24,623.754C1495.79,632.207 1494.31,650.408 1494.67,671.471C1494.7,673.411 1494.74,675.315 1494.82,677.21C1495.03,683.521 1495.39,689.495 1495.88,694.93C1495.56,694.934 1495.24,694.937 1494.92,694.937Z" style="fill:url(#_Linear13);"/>
        <path d="M1548.19,861.351C1547.76,861.331 1547.34,861.31 1546.93,861.288C1541.78,861.024 1537.21,857.825 1535.22,853.038C1526.71,832.523 1522.06,807.48 1519.55,784.526C1522.21,806.315 1527.11,828.091 1527.11,828.091C1523.97,803.916 1524.03,782.407 1524.99,766.335C1525.15,763.713 1525.33,761.236 1525.52,758.916C1525.92,754.147 1527.73,749.827 1530.5,746.335C1534.83,740.885 1541.51,737.446 1548.88,737.446C1549.38,737.446 1549.88,737.462 1550.39,737.495C1552.68,737.64 1555,737.795 1557.27,737.951C1568.33,738.71 1578.26,739.505 1578.38,739.515C1586.56,786.143 1603.87,817.532 1614.84,833.633C1619.78,840.904 1616.57,850.977 1608.28,853.879C1598.98,857.123 1589.29,859.062 1580.2,860.178L1585.42,830.507L1557.6,823.647L1548.19,861.351ZM1518.07,768.042C1516.82,750.789 1516.68,735.922 1516.77,726.863C1516.83,733.077 1517.08,748.513 1518.07,768.042ZM1576.63,728.206C1576.63,728.205 1576.63,728.206 1576.63,728.206ZM1534.73,724.359C1524.98,723.983 1517.54,723.904 1516.81,723.897L1516.81,723.896C1522.92,723.947 1528.89,724.104 1534.73,724.359Z" style="fill:url(#_Linear14);"/>
        <path d="M1744.18,801.824C1741.41,798.729 1727.54,784.069 1700.28,768.286C1695.54,765.539 1690.4,762.763 1684.83,760.003C1669.67,752.487 1651.41,745.126 1629.8,739.03C1704.94,759.275 1743.07,799.977 1743.34,800.27C1743.62,800.903 1743.9,801.423 1744.18,801.824ZM1546.66,724.932C1542.51,724.689 1538.45,724.502 1534.73,724.359C1528.89,724.104 1522.92,723.947 1516.81,723.896C1515.37,723.884 1513.93,723.879 1512.47,723.879C1509.66,723.879 1506.82,723.901 1503.95,723.947C1506.02,723.825 1510,723.68 1515.59,723.68C1523.23,723.68 1533.86,723.953 1546.66,724.932ZM1501.48,722.652C1500.91,721.792 1500.36,720.524 1499.84,718.896C1499.78,718.726 1499.73,718.554 1499.67,718.377C1499.71,718.371 1499.72,718.367 1499.73,718.366C1500.36,720.484 1500.96,721.817 1501.48,722.652ZM1499.72,718.365C1499.69,718.323 1499.66,718.28 1499.63,718.234C1498.17,713.375 1496.9,705.703 1496.01,696.314C1496,696.237 1496,696.163 1495.99,696.092C1497.18,707.588 1498.52,714.371 1499.72,718.365ZM1733.01,704.315L1733.01,704.288C1731.25,674.531 1731.75,628.265 1731.75,628.265C1731.75,628.225 1731.76,628.198 1731.76,628.18C1731.66,640.593 1731.72,653.753 1731.95,667.379C1732.17,680.187 1732.54,692.574 1733.01,704.315ZM1631.5,699.759C1623.49,699.759 1615.25,699.3 1606.91,698.445C1574.74,695.146 1546.29,694.346 1526.24,694.346C1508.12,694.346 1496.86,695.001 1495.95,695.056C1495.95,694.973 1495.94,694.929 1495.94,694.929C1495.92,694.93 1495.9,694.93 1495.88,694.93C1495.39,689.495 1495.03,683.521 1494.82,677.21C1494.74,675.315 1494.7,673.411 1494.67,671.471C1494.31,650.408 1495.79,632.207 1498.24,623.754C1499.18,620.541 1500.25,618.736 1501.41,618.718C1584.42,617.286 1644.63,595.311 1684.83,572.815C1690.36,569.721 1695.5,566.62 1700.28,563.558C1718.53,551.866 1731.36,540.789 1739.19,533.227C1738.78,534.031 1738.38,535.113 1738,536.456L1738,536.467C1734.47,548.899 1732.11,583.751 1731.76,628.177C1731.76,628.198 1731.75,628.23 1731.75,628.263C1731.74,628.316 1731.73,628.369 1731.73,628.369C1731.73,628.369 1731.74,628.341 1731.75,628.265C1724.82,681.198 1682.53,699.759 1631.5,699.759ZM1748.28,523.635C1748.46,523.421 1748.55,523.31 1748.55,523.31L1748.55,523.472C1748.46,523.526 1748.37,523.58 1748.28,523.635Z" style="fill:url(#_Linear15);"/>
        <path d="M1773.14,815.173C1766.54,815.173 1751.87,813.815 1744.7,802.427C1744.53,802.271 1744.36,802.07 1744.18,801.824C1743.9,801.423 1743.62,800.903 1743.34,800.27L1743.34,800.271C1737.31,785.787 1734.78,734.077 1733.01,704.315C1732.54,692.574 1732.17,680.187 1731.95,667.379C1731.72,653.753 1731.66,640.593 1731.76,628.18L1731.76,628.155L1731.76,628.177C1732.11,583.751 1734.47,548.899 1738,536.467L1738,536.456C1738.38,535.113 1738.78,534.031 1739.19,533.227C1739.47,532.675 1739.75,532.254 1740.04,531.971C1742.18,528.309 1745.09,525.614 1748.28,523.635C1748.37,523.58 1748.46,523.526 1748.55,523.472C1756.35,518.76 1765.73,518.226 1769.58,518.226C1770.71,518.226 1771.36,518.272 1771.36,518.272C1771.39,518.271 1771.42,518.271 1771.45,518.271C1774.94,518.271 1777.05,521.992 1779.18,531.927C1780.78,539.335 1782.27,549.91 1783.63,563.356C1785.04,577.334 1786.22,593.649 1787.13,611.428C1788.01,628.648 1788.64,647.24 1788.97,666.396C1789.28,684.398 1789.31,701.909 1789.07,718.262C1788.79,737.278 1788.16,754.726 1787.18,769.56C1786.29,783.047 1785.16,793.666 1783.82,801.124C1782.91,806.165 1781.97,809.631 1780.8,811.842C1779.63,814.052 1778.24,815.009 1776.47,815.04C1776.47,815.04 1775.2,815.173 1773.14,815.173Z" style="fill:url(#_Linear16);"/>
        <path d="M1783.21,720.039C1783.14,724.102 1783.06,728.041 1782.96,731.851L1782.96,732.011C1782,770.504 1779.5,795.934 1776.97,805.555C1776.79,806.234 1775.83,806.251 1775.63,805.579C1772.53,795.193 1768.81,766.068 1766.53,721.65C1765.69,705.37 1765.05,687.034 1764.7,666.815C1764.36,646.849 1764.37,628.701 1764.63,612.561C1764.65,611.263 1764.67,609.977 1764.7,608.707C1765.52,566.04 1768.17,537.974 1770.85,527.752C1771.03,527.075 1771.99,527.058 1772.19,527.729C1775.26,537.968 1778.92,566.448 1781.2,609.867C1782.08,626.59 1782.76,645.529 1783.12,666.498C1783.46,686.175 1783.46,704.072 1783.21,720.039Z" style="fill:url(#_Linear17);"/>
        <path d="M1817.14,665.178C1817.14,678.548 1811.73,690.652 1802.96,699.415C1798.01,704.367 1791.99,708.25 1785.28,710.689C1783.64,711.287 1781.97,711.797 1780.25,712.213C1776.56,713.118 1772.7,713.595 1768.73,713.595L1765.96,713.595C1765.24,699.637 1764.69,683.917 1764.39,666.582C1764.09,649.463 1764.1,633.904 1764.33,620.066C1764.34,618.954 1764.36,617.851 1764.38,616.762L1768.73,616.762C1772.09,616.762 1775.37,617.104 1778.54,617.756C1780.26,618.111 1781.96,618.56 1783.62,619.096C1803.07,625.375 1817.14,643.634 1817.14,665.178Z" style="fill:url(#_Linear18);"/>
        <path d="M1565.64,754.707L1564.81,756.359L1573.9,789.141L1592.91,789.141L1593.19,788.039L1565.64,754.707Z" style="fill:url(#_Linear19);"/>
        <path d="M1593.19,788.039L1575,788.039L1565.64,754.707L1582.99,754.707L1593.19,788.039Z" style="fill:url(#_Linear20);"/>
        <path d="M1629.8,739.03C1629.79,739.028 1629.79,739.026 1629.78,739.023C1610.94,733.952 1592.91,730.516 1576.63,728.206C1576.62,728.162 1576.62,728.119 1576.61,728.076C1596.22,730.748 1613.91,734.548 1629.8,739.03ZM1503.06,724.025C1502.78,724.025 1502.21,723.846 1501.48,722.652C1502.04,723.507 1502.62,723.958 1503.2,723.959L1503.22,723.959C1503.46,723.955 1503.7,723.951 1503.95,723.947C1503.68,723.962 1503.45,723.978 1503.24,723.992C1503.24,723.992 1503.18,724.025 1503.06,724.025Z" style="fill:url(#_Linear21);"/>
        <path d="M1576.63,728.206L1576.63,728.205C1575.98,728.069 1575.31,727.936 1574.61,727.808C1575.28,727.896 1575.95,727.985 1576.61,728.076C1576.62,728.119 1576.62,728.162 1576.63,728.206Z" style="fill:url(#_Linear22);"/>
        <path d="M1743.34,800.27C1743.07,799.977 1704.94,759.275 1629.8,739.03C1613.91,734.548 1596.22,730.748 1576.61,728.076C1575.95,727.985 1575.28,727.896 1574.61,727.808C1567.03,726.414 1556.59,725.513 1546.66,724.932C1533.86,723.953 1523.23,723.68 1515.59,723.68C1510,723.68 1506.02,723.825 1503.95,723.947C1503.7,723.951 1503.46,723.955 1503.22,723.959L1503.2,723.959C1502.62,723.958 1502.04,723.507 1501.48,722.652C1500.96,721.817 1500.36,720.484 1499.73,718.366L1499.72,718.365C1498.52,714.371 1497.18,707.588 1495.99,696.092C1495.97,695.59 1495.96,695.233 1495.95,695.056C1496.86,695.001 1508.12,694.346 1526.24,694.346C1546.29,694.346 1574.74,695.146 1606.91,698.445C1615.25,699.3 1623.49,699.759 1631.5,699.759C1682.53,699.759 1724.82,681.198 1731.75,628.265C1731.75,628.265 1731.25,674.531 1733.01,704.288L1733.01,704.315C1734.87,749.772 1738.48,785.496 1742.5,798.005L1742.5,798.008L1742.51,798.016C1742.78,798.879 1743.06,799.632 1743.34,800.27ZM1731.73,628.369C1731.73,628.369 1731.74,628.316 1731.75,628.263C1731.75,628.23 1731.76,628.198 1731.76,628.177L1731.76,628.18C1731.76,628.198 1731.75,628.225 1731.75,628.265C1731.74,628.341 1731.73,628.369 1731.73,628.369Z" style="fill:url(#_Linear23);"/>
        <path d="M1743.34,800.271L1743.34,800.27C1743.06,799.632 1742.78,798.879 1742.51,798.016L1742.5,798.008L1742.5,798.005C1738.48,785.496 1734.87,749.772 1733.01,704.315C1734.78,734.077 1737.31,785.787 1743.34,800.271ZM1731.76,628.18L1731.76,628.155L1731.76,628.18Z" style="fill:url(#_Linear24);"/>
        <path d="M1463.8,707.612C1446.09,693.183 1445.94,671.122 1447.52,664.163C1447.17,666.499 1446.99,668.89 1446.99,671.324C1446.99,685.867 1453.51,698.886 1463.8,707.612Z" style="fill:url(#_Linear25);"/>
        <path d="M1494.09,718.813C1487.39,718.813 1475.62,717.185 1463.92,707.711C1463.88,707.678 1463.84,707.645 1463.8,707.612C1453.51,698.886 1446.99,685.867 1446.99,671.324C1446.99,668.89 1447.17,666.499 1447.52,664.163L1447.52,664.151C1447.52,664.151 1456.4,694.937 1494.92,694.937C1495.24,694.937 1495.56,694.934 1495.88,694.93C1495.92,695.395 1495.96,695.857 1496.01,696.314C1496.23,700.757 1497.1,714.579 1499.63,718.234C1499.65,718.282 1499.66,718.329 1499.67,718.377C1499.33,718.444 1497.28,718.813 1494.09,718.813Z" style="fill:url(#_Linear26);"/>
        <path d="M1499.67,718.377C1499.66,718.329 1499.65,718.282 1499.63,718.234C1499.66,718.28 1499.69,718.323 1499.72,718.365L1499.73,718.366C1499.72,718.367 1499.71,718.371 1499.67,718.377ZM1496.01,696.314C1495.96,695.857 1495.92,695.395 1495.88,694.93C1495.9,694.93 1495.92,694.93 1495.94,694.929C1495.94,694.929 1495.95,694.973 1495.95,695.056C1495.91,695.058 1495.89,695.06 1495.89,695.06C1495.92,695.407 1495.96,695.752 1495.99,696.092C1496,696.163 1496,696.237 1496.01,696.314Z" style="fill:url(#_Linear27);"/>
        <path d="M1499.73,718.366L1499.72,718.365L1499.73,718.366ZM1495.99,696.092C1495.96,695.752 1495.92,695.407 1495.89,695.06C1495.89,695.06 1495.91,695.058 1495.95,695.056C1495.96,695.233 1495.97,695.59 1495.99,696.092Z" style="fill:url(#_Linear28);"/>
        <path d="M1519.55,784.526C1518.87,778.913 1518.33,773.298 1518.07,768.055L1518.07,768.042C1518.45,773.345 1518.94,778.87 1519.55,784.526ZM1578.38,739.515C1578.17,738.318 1577.97,737.111 1577.77,735.894C1577.36,733.374 1576.98,730.811 1576.63,728.206L1578.38,739.515ZM1516.77,726.863C1516.75,724.936 1516.75,723.896 1516.75,723.896C1516.75,723.896 1516.77,723.896 1516.81,723.897C1516.79,724.801 1516.78,725.791 1516.77,726.863Z" style="fill:url(#_Linear29);"/>
        <path d="M1527.11,828.091C1527.11,828.091 1522.21,806.315 1519.55,784.526C1518.94,778.87 1518.45,773.345 1518.07,768.042C1517.08,748.513 1516.83,733.077 1516.77,726.863C1516.78,725.791 1516.79,724.801 1516.81,723.897C1517.54,723.904 1524.98,723.983 1534.73,724.359C1542.89,724.715 1550.78,725.264 1558.41,725.983C1564.18,726.572 1570.27,727.303 1576.63,728.205L1576.63,728.206C1576.98,730.811 1577.36,733.374 1577.77,735.894C1577.97,737.111 1578.17,738.318 1578.38,739.515C1578.26,739.505 1568.33,738.71 1557.27,737.951C1555,737.795 1552.68,737.64 1550.39,737.495C1549.88,737.462 1549.38,737.446 1548.88,737.446C1541.51,737.446 1534.83,740.885 1530.5,746.335C1527.73,749.827 1525.92,754.147 1525.52,758.916C1525.33,761.236 1525.15,763.713 1524.99,766.335C1524.03,782.407 1523.97,803.916 1527.11,828.091Z" style="fill:url(#_Linear30);"/>
        <path d="M1558.41,725.983C1550.78,725.264 1542.89,724.715 1534.73,724.359C1538.45,724.502 1542.51,724.689 1546.66,724.932C1550.4,725.218 1554.32,725.565 1558.41,725.983Z" style="fill:url(#_Linear31);"/>
        <path d="M1576.63,728.205C1570.27,727.303 1564.18,726.572 1558.41,725.983C1563.94,726.504 1569.35,727.116 1574.61,727.808C1575.31,727.936 1575.98,728.069 1576.63,728.206L1576.63,728.205Z" style="fill:url(#_Linear32);"/>
        <path d="M1574.61,727.808C1569.35,727.116 1563.94,726.504 1558.41,725.983C1554.32,725.565 1550.4,725.218 1546.66,724.932C1556.59,725.513 1567.03,726.414 1574.61,727.808Z" style="fill:url(#_Linear33);"/>
        <path d="M1556.2,824.622C1556.2,824.622 1558.92,819.717 1551.82,809.379C1544.72,799.042 1550.15,789.23 1555.06,791.946C1559.97,794.662 1562.16,802.283 1562.16,802.283L1570.83,777.794C1572.27,773.724 1577.34,772.438 1580.6,775.278C1586.4,780.346 1593.84,789.081 1594.83,801.144C1596.5,821.293 1584.94,831.318 1584.94,831.318L1556.2,824.622Z" style="fill:url(#_Linear34);"/>
        <path d="M1531.83,1037.08L1495.42,1029.14L1509.47,964.719L1545.88,972.657L1531.83,1037.08Z" style="fill:url(#_Linear35);"/>
        <clipPath id="_clip36">
            <path d="M1684.83,1247.99L1684.83,527.848C1684.83,510.155 1673.82,494.256 1660.13,492.319L1359.79,449.811C1343.23,447.467 1329.68,461.516 1329.68,481.213L1329.68,1294.64C1329.68,1314.33 1343.23,1328.38 1359.79,1326.04L1660.13,1283.53C1673.82,1281.59 1684.83,1265.69 1684.83,1247.99Z"/>
        </clipPath>
        <g clip-path="url(#_clip36)">
            <clipPath id="_clip37">
                <path d="M1467.55,1170.49C1467.55,1170.49 1450.42,1228.79 1467.62,1317.66C1467.62,1317.66 1451.17,1433.82 1446.38,1481.72L1473.66,1481.72L1516.35,1320.53L1522.08,1257.46L1539.28,1320.53L1550.12,1481.72L1577.4,1481.72L1585.98,1349.1C1586.76,1336.98 1586.6,1324.83 1585.5,1312.76C1584.7,1304.05 1583.42,1295.39 1581.65,1286.8L1565.19,1207.11L1467.55,1170.49Z"/>
            </clipPath>
            <g clip-path="url(#_clip37)">
                <rect x="1446.38" y="1170.49" width="140.085" height="155.805" style="fill:url(#_Linear38);fill-rule:nonzero;"/>
            </g>
        </g>
        <path d="M1503.36,987.628C1503.27,987.479 1503.18,987.383 1503.08,987.246C1500.56,983.272 1498.43,978.173 1497.25,971.563C1492.86,946.78 1503.81,919.92 1504.85,919.081C1505.86,918.249 1541.41,915.908 1542.87,915.867C1544.12,915.812 1561.96,923.449 1566.4,925.362C1567.04,925.637 1567.47,926.229 1567.55,926.965C1567.93,930.192 1566.87,957.154 1567.77,959.884C1567.78,960.044 1566.51,980.82 1566.38,981.618C1565.4,987.831 1563.85,993.699 1561.54,998.891C1561.08,999.482 1560.64,1000.04 1560.17,1000.64C1555.5,1003.92 1547.72,1004.82 1538.55,1003.67C1538.19,1003.63 1511.19,999.505 1503.36,987.628Z" style="fill:url(#_Linear39);"/>
        <path d="M1505.01,989.814C1505.01,989.814 1472.07,956.571 1485.13,924.447C1500.43,886.821 1546.52,914.967 1571.72,888.356C1571.72,888.356 1599.37,913.781 1567.59,935.339C1549.87,947.359 1524.95,941.263 1524.95,941.263L1525.09,963.656C1525.09,963.656 1519.05,947.296 1513.08,946.956C1501.57,946.301 1496.59,973.273 1505.01,989.814Z" style="fill:url(#_Linear40);"/>
        <path d="M1503.44,1216.56C1480.95,1216.56 1460.72,1211.01 1459.02,1191.53C1455.16,1147.45 1471.85,1076.98 1490.54,1015.13C1492.93,1007.22 1500.17,1002.21 1507.92,1002.21C1509.56,1002.21 1511.22,1002.44 1512.87,1002.91L1548.19,861.351L1557.6,823.647L1585.42,830.507L1580.2,860.178L1551.41,1023.82C1551.39,1023.77 1551.37,1023.74 1551.37,1023.74C1551.37,1023.74 1546.6,1046.42 1532.28,1054.77C1529.57,1056.35 1527.07,1056.99 1524.8,1056.99C1515.09,1057 1509.59,1045.22 1509.59,1045.22C1509.59,1045.22 1510.45,1061.4 1526.53,1061.4C1529.49,1061.4 1532.96,1060.85 1537.05,1059.55C1560.66,1052.04 1553.4,1029.09 1551.69,1024.53C1570.75,1042.63 1580.53,1069.33 1576.34,1096.57C1569.77,1139.33 1563.28,1190.48 1566.89,1206.85C1566.89,1206.85 1533.19,1216.56 1503.44,1216.56Z" style="fill:url(#_Linear41);"/>
        <path d="M1551.69,1024.53C1551.57,1024.42 1551.46,1024.31 1551.34,1024.2L1551.41,1023.82C1551.46,1023.94 1551.56,1024.18 1551.69,1024.53Z" style="fill:url(#_Linear42);"/>
        <path d="M1526.53,1061.4C1510.45,1061.4 1509.59,1045.22 1509.59,1045.22C1509.59,1045.22 1515.09,1057 1524.8,1056.99C1527.07,1056.99 1529.57,1056.35 1532.28,1054.77C1546.6,1046.42 1551.37,1023.74 1551.37,1023.74C1551.37,1023.74 1551.39,1023.77 1551.41,1023.82L1551.34,1024.2C1551.46,1024.31 1551.57,1024.42 1551.69,1024.53C1553.4,1029.09 1560.66,1052.04 1537.05,1059.55C1532.96,1060.85 1529.49,1061.4 1526.53,1061.4Z" style="fill:url(#_Linear43);"/>
        <path d="M2211.07,871.364L1896.59,871.364L1896.59,644.146L2211.07,644.146L2211.07,871.364ZM1911.35,697.684L1911.35,839.326L2188.73,839.326L2188.73,697.684L1911.35,697.684Z" style="fill:url(#_Linear44);"/>
        <rect x="1914.72" y="661.009" width="107.92" height="6.258" style="fill:url(#_Linear45);"/>
        <rect x="1914.72" y="672.481" width="66.74" height="6.257" style="fill:url(#_Linear46);"/>
        <path d="M2188.73,839.326L1911.35,839.326L1911.35,697.684L2188.73,697.684L2188.73,839.326Z" style="fill:url(#_Linear47);"/>
        <rect x="1914.72" y="694.733" width="277.38" height="141.642" style="fill:url(#_Linear48);"/>
        <path d="M2031.91,744.653L2031.91,786.102C2031.91,787.473 2032.53,788.636 2033.49,789.449C2035.08,790.804 2037.6,791.183 2039.67,789.92L2073.52,769.345C2075,768.442 2075.75,766.993 2075.75,765.542C2075.76,764.09 2075.02,762.637 2073.54,761.725L2039.7,740.852C2037.95,739.771 2035.88,739.868 2034.31,740.74C2032.91,741.521 2031.91,742.921 2031.91,744.653Z" style="fill:url(#_Linear49);"/>
        <path d="M1896.59,644.145L1906.09,640.688L2215.39,640.688L2215.39,865.316L2211.07,871.364L2211.5,644.576L1896.59,644.145Z" style="fill:url(#_Linear50);"/>
        <path d="M1429.77,219.012C1417.01,219.012 1406.66,208.665 1406.66,195.902C1406.66,183.138 1417.01,172.791 1429.77,172.791C1442.54,172.791 1452.88,183.138 1452.88,195.902C1452.88,208.665 1442.54,219.012 1429.77,219.012ZM1416.6,187.483L1416.6,207.693L1446.25,207.693L1446.25,187.483L1416.6,187.483Z" style="fill:url(#_Linear51);"/>
        <rect x="1416.6" y="187.483" width="29.65" height="20.21" style="fill:url(#_Linear52);"/>
        <rect x="1415.6" y="186.483" width="29.65" height="20.21" style="fill:white;fill-rule:nonzero;"/>
        <path d="M1415.6,206.693C1417.98,204.544 1420.41,202.455 1422.84,200.375C1424.05,199.323 1425.29,198.311 1426.52,197.281L1430.2,194.201L1430.43,194.013L1430.65,194.201L1434.34,197.28C1435.56,198.312 1436.8,199.322 1438.01,200.374C1440.45,202.454 1442.88,204.543 1445.25,206.693C1442.69,204.77 1440.17,202.786 1437.67,200.793C1436.4,199.809 1435.17,198.783 1433.93,197.777L1430.2,194.747L1430.65,194.747L1426.92,197.777C1425.68,198.783 1424.45,199.807 1423.19,200.792C1420.68,202.786 1418.16,204.769 1415.6,206.693Z" style="fill:rgb(171,166,226);fill-rule:nonzero;"/>
        <path d="M1415.6,186.483L1430.43,198.702L1445.25,186.483" style="fill:white;fill-rule:nonzero;"/>
        <path d="M1415.6,186.483C1418.16,188.407 1420.68,190.391 1423.19,192.383C1424.45,193.369 1425.68,194.393 1426.92,195.399L1430.65,198.429L1430.2,198.429L1433.93,195.398C1435.17,194.394 1436.4,193.368 1437.67,192.382C1440.17,190.39 1442.69,188.406 1445.25,186.483C1442.88,188.633 1440.45,190.722 1438.01,192.803C1436.8,193.854 1435.56,194.865 1434.34,195.896L1430.65,198.975L1430.43,199.163L1430.2,198.975L1426.52,195.896C1425.29,194.865 1424.05,193.853 1422.84,192.802C1420.41,190.721 1417.98,188.632 1415.6,186.483Z" style="fill:rgb(171,166,226);fill-rule:nonzero;"/>
        <path d="M1797.16,982.668C1784.39,982.668 1774.05,972.32 1774.05,959.557C1774.05,946.793 1784.39,936.446 1797.16,936.446C1809.92,936.446 1820.27,946.793 1820.27,959.557C1820.27,972.32 1809.92,982.668 1797.16,982.668ZM1783.99,951.138L1783.99,971.349L1813.64,971.349L1813.64,951.138L1783.99,951.138Z" style="fill:url(#_Linear53);"/>
        <rect x="1783.99" y="951.138" width="29.65" height="20.211" style="fill:url(#_Linear54);"/>
        <rect x="1782.99" y="950.139" width="29.65" height="20.21" style="fill:white;fill-rule:nonzero;"/>
        <path d="M1782.99,970.349C1785.36,968.199 1787.79,966.109 1790.23,964.029C1791.44,962.979 1792.68,961.967 1793.9,960.936L1797.59,957.856L1797.81,957.669L1798.04,957.856L1801.72,960.936C1802.95,961.967 1804.19,962.978 1805.4,964.028C1807.83,966.109 1810.26,968.198 1812.64,970.349C1810.08,968.426 1807.56,966.441 1805.05,964.449C1803.79,963.464 1802.56,962.438 1801.31,961.433L1797.59,958.402L1798.04,958.402L1794.31,961.432C1793.06,962.438 1791.83,963.463 1790.57,964.448C1788.06,966.44 1785.55,968.425 1782.99,970.349Z" style="fill:rgb(171,166,226);fill-rule:nonzero;"/>
        <path d="M1782.99,950.139L1797.81,962.357L1812.64,950.139" style="fill:white;fill-rule:nonzero;"/>
        <path d="M1782.99,950.139C1785.55,952.063 1788.06,954.046 1790.57,956.039C1791.83,957.024 1793.06,958.049 1794.31,959.055L1798.04,962.084L1797.59,962.084L1801.31,959.054C1802.56,958.049 1803.79,957.022 1805.05,956.038C1807.56,954.045 1810.08,952.062 1812.64,950.139C1810.26,952.288 1807.83,954.377 1805.4,956.458C1804.19,957.51 1802.95,958.52 1801.72,959.551L1798.04,962.63L1797.81,962.818L1797.59,962.63L1793.9,959.551C1792.68,958.521 1791.44,957.508 1790.23,956.457C1787.79,954.377 1785.36,952.287 1782.99,950.139Z" style="fill:rgb(171,166,226);fill-rule:nonzero;"/>
        <g transform="matrix(1,0,0,1,655.037,-236.599)">
            <path d="M1085,459.287C1058.53,459.287 1037.06,437.825 1037.06,411.351C1037.06,384.877 1058.53,363.416 1085,363.416C1111.47,363.416 1132.94,384.877 1132.94,411.351C1132.94,437.825 1111.47,459.287 1085,459.287ZM1056.6,392.816L1056.6,434.735L1118.11,434.735L1118.11,392.816L1056.6,392.816Z" style="fill:url(#_Linear55);"/>
        </g>
        <g transform="matrix(1,0,0,1,655.037,-236.599)">
            <rect x="1056.6" y="392.816" width="61.51" height="41.919" style="fill:url(#_Linear56);"/>
        </g>
        <g transform="matrix(1,0,0,1,655.037,-236.599)">
            <rect x="1055.6" y="391.815" width="61.51" height="41.92" style="fill:white;fill-rule:nonzero;"/>
        </g>
        <g transform="matrix(1,0,0,1,655.037,-236.599)">
            <path d="M1055.6,433.735L1063.18,427.266L1070.81,420.854L1086.13,408.117L1086.36,407.93L1086.58,408.117L1101.91,420.853L1109.53,427.265L1117.11,433.735L1109.31,427.532L1101.56,421.272L1086.13,408.663L1086.58,408.663L1071.15,421.271L1063.4,427.531L1055.6,433.735Z" style="fill:rgb(171,166,226);fill-rule:nonzero;"/>
        </g>
        <g transform="matrix(1,0,0,1,655.037,-236.599)">
            <path d="M1055.6,391.815L1086.36,417.16L1117.11,391.815" style="fill:white;fill-rule:nonzero;"/>
        </g>
        <g transform="matrix(1,0,0,1,655.037,-236.599)">
            <path d="M1055.6,391.815L1063.4,398.019L1071.15,404.279L1086.58,416.887L1086.13,416.887L1101.56,404.278L1109.31,398.018L1117.11,391.815L1109.53,398.285L1101.91,404.698L1086.58,417.433L1086.36,417.62L1086.13,417.433L1070.81,404.697L1063.18,398.285L1055.6,391.815Z" style="fill:rgb(171,166,226);fill-rule:nonzero;"/>
        </g>
        <path d="M2048.14,1004.42C2041.88,996.218 2038.12,986.002 2038.12,974.887C2038.12,947.93 2059.97,926.077 2086.93,926.077C2113.89,926.077 2135.74,947.93 2135.74,974.887C2135.74,1001.84 2113.89,1023.7 2086.93,1023.7C2077.41,1023.7 2068.55,1020.93 2061.04,1016.21L2038.12,1028.95L2048.14,1004.42Z" style="fill:url(#_Linear57);"/>
        <path d="M2105.37,977.511C2105.37,982.017 2109.03,985.669 2113.53,985.669C2118.04,985.669 2121.69,982.017 2121.69,977.511C2121.69,973.006 2118.04,969.354 2113.53,969.354C2109.03,969.354 2105.37,973.006 2105.37,977.511Z" style="fill:white;fill-rule:nonzero;"/>
        <path d="M2078.77,977.511C2078.77,982.017 2082.42,985.669 2086.93,985.669C2091.44,985.669 2095.09,982.017 2095.09,977.511C2095.09,973.006 2091.44,969.354 2086.93,969.354C2082.42,969.354 2078.77,973.006 2078.77,977.511Z" style="fill:white;fill-rule:nonzero;"/>
        <path d="M2052.17,977.511C2052.17,982.017 2055.82,985.669 2060.33,985.669C2064.83,985.669 2068.49,982.017 2068.49,977.511C2068.49,973.006 2064.83,969.354 2060.33,969.354C2055.82,969.354 2052.17,973.006 2052.17,977.511Z" style="fill:white;fill-rule:nonzero;"/>
        <path d="M1204.47,707.27C1208.14,702.463 1210.34,696.479 1210.34,689.968C1210.34,674.178 1197.54,661.377 1181.75,661.377C1165.96,661.377 1153.16,674.178 1153.16,689.968C1153.16,705.758 1165.96,718.559 1181.75,718.559C1187.33,718.559 1192.52,716.937 1196.92,714.174L1210.34,721.635L1204.47,707.27Z" style="fill:url(#_Linear58);"/>
        <path d="M1170.95,691.505C1170.95,694.145 1168.81,696.285 1166.17,696.285C1163.53,696.285 1161.39,694.145 1161.39,691.505C1161.39,688.867 1163.53,686.727 1166.17,686.727C1168.81,686.727 1170.95,688.867 1170.95,691.505Z" style="fill:white;fill-rule:nonzero;"/>
        <path d="M1186.53,691.505C1186.53,694.145 1184.39,696.285 1181.75,696.285C1179.11,696.285 1176.97,694.145 1176.97,691.505C1176.97,688.867 1179.11,686.727 1181.75,686.727C1184.39,686.727 1186.53,688.867 1186.53,691.505Z" style="fill:white;fill-rule:nonzero;"/>
        <path d="M1202.11,691.505C1202.11,694.145 1199.97,696.285 1197.33,696.285C1194.69,696.285 1192.55,694.145 1192.55,691.505C1192.55,688.867 1194.69,686.727 1197.33,686.727C1199.97,686.727 1202.11,688.867 1202.11,691.505Z" style="fill:white;fill-rule:nonzero;"/>
        <path d="M1924.39,300.407C1920.38,295.148 1917.97,288.602 1917.97,281.478C1917.97,264.201 1931.97,250.196 1949.25,250.196C1966.53,250.196 1980.53,264.201 1980.53,281.478C1980.53,298.753 1966.53,312.758 1949.25,312.758C1943.15,312.758 1937.47,310.984 1932.66,307.961L1917.97,316.123L1924.39,300.407Z" style="fill:url(#_Linear59);"/>
        <path d="M1961.07,283.16C1961.07,286.047 1963.41,288.388 1966.3,288.388C1969.19,288.388 1971.53,286.047 1971.53,283.16C1971.53,280.272 1969.19,277.931 1966.3,277.931C1963.41,277.931 1961.07,280.272 1961.07,283.16Z" style="fill:white;fill-rule:nonzero;"/>
        <path d="M1944.02,283.16C1944.02,286.047 1946.36,288.388 1949.25,288.388C1952.14,288.388 1954.48,286.047 1954.48,283.16C1954.48,280.272 1952.14,277.931 1949.25,277.931C1946.36,277.931 1944.02,280.272 1944.02,283.16Z" style="fill:white;fill-rule:nonzero;"/>
        <path d="M1926.97,283.16C1926.97,286.047 1929.31,288.388 1932.2,288.388C1935.09,288.388 1937.43,286.047 1937.43,283.16C1937.43,280.272 1935.09,277.931 1932.2,277.931C1929.31,277.931 1926.97,280.272 1926.97,283.16Z" style="fill:white;fill-rule:nonzero;"/>
        <path d="M1712.06,353.934C1712.06,365.925 1702.34,375.646 1690.35,375.646C1678.36,375.646 1668.64,365.925 1668.64,353.934C1668.64,341.943 1678.36,332.223 1690.35,332.223C1702.34,332.223 1712.06,341.943 1712.06,353.934Z" style="fill:url(#_Linear60);"/>
        <path d="M1700.25,345.356C1694.74,343.192 1690.35,350.799 1690.35,350.799C1690.35,350.799 1685.97,343.192 1680.45,345.356C1672.31,348.55 1683.56,363.292 1690.35,366.653C1697.15,363.292 1708.39,348.55 1700.25,345.356Z" style="fill:white;fill-rule:nonzero;"/>
        <path d="M2354.41,775.62C2354.41,787.611 2344.69,797.331 2332.7,797.331C2320.71,797.331 2310.99,787.611 2310.99,775.62C2310.99,763.629 2320.71,753.908 2332.7,753.908C2344.69,753.908 2354.41,763.629 2354.41,775.62Z" style="fill:url(#_Linear61);"/>
        <path d="M2342.6,767.042C2337.09,764.878 2332.7,772.485 2332.7,772.485C2332.7,772.485 2328.31,764.878 2322.8,767.042C2314.66,770.236 2325.91,784.978 2332.7,788.339C2339.5,784.978 2350.74,770.236 2342.6,767.042Z" style="fill:white;fill-rule:nonzero;"/>
        <path d="M1095.13,955.497C1095.13,976.24 1078.32,993.056 1057.57,993.056C1036.83,993.056 1020.01,976.24 1020.01,955.497C1020.01,934.754 1036.83,917.938 1057.57,917.938C1078.32,917.938 1095.13,934.754 1095.13,955.497Z" style="fill:url(#_Linear62);"/>
        <path d="M1074.7,940.657C1065.16,936.915 1057.57,950.074 1057.57,950.074C1057.57,950.074 1049.98,936.915 1040.45,940.657C1026.36,946.184 1045.82,971.686 1057.57,977.5C1069.33,971.686 1088.78,946.184 1074.7,940.657Z" style="fill:white;fill-rule:nonzero;"/>
        <path d="M2104.6,535.629L2051.81,468.306L2253.55,389.591L2104.6,535.629Z" style="fill:url(#_Linear63);"/>
        <path d="M2051.81,468.306L2253.55,389.591L2006.7,462.23L2051.81,468.306Z" style="fill:url(#_Linear64);"/>
        <path d="M2102.06,474.996L2104.6,535.629L2253.55,389.591L2102.06,474.996Z" style="fill:url(#_Linear65);"/>
        <path d="M2253.55,389.591L2168.41,484.136L2102.06,474.996L2253.55,389.591Z" style="fill:url(#_Linear66);"/>
        <path d="M1880.79,1164.62L1873.6,1197.96C1871.38,1208.27 1875.01,1218.96 1883.05,1225.78L1909.27,1248.02L1925.96,1234.34L1908.29,1206.84L1919.09,1181.31L1880.79,1164.62Z" style="fill:url(#_Linear67);"/>
        <path d="M2033,1179.35L2067.36,1164.62L2075.99,1199.12C2078.54,1209.32 2075.28,1220.1 2067.5,1227.18L2040.85,1251.45L2040.85,1206.32L2033,1179.35Z" style="fill:url(#_Linear68);"/>
        <path d="M1955.42,1108.65L1974.08,1135.16L1988.81,1108.65L2021.9,1111.77C2033.72,1112.88 2044.15,1119.92 2049.62,1130.45L2067.36,1164.62L2033,1179.35L2040.85,1198.99L2040.85,1251.45L1971.13,1283.93L1926.94,1258.89L1908.29,1206.84L1919.09,1181.31L1880.79,1164.62L1903.53,1128.38C1909.03,1119.61 1918.14,1113.73 1928.4,1112.33L1955.42,1108.65Z" style="fill:url(#_Linear69);"/>
        <path d="M1899.45,1258.89L1899.45,1198.99L2050.67,1198.99L2050.67,1258.89L1971.13,1283.93L1899.45,1258.89Z" style="fill:url(#_Linear70);"/>
        <path d="M2045.76,1325.66C2045.76,1325.66 1894.54,1308.97 1841.51,1281.47C1788.49,1253.98 1845.44,1227.46 1894.54,1243.18C1943.64,1258.89 2047.59,1298.62 2047.59,1298.62L2045.76,1325.66Z" style="fill:url(#_Linear71);"/>
        <path d="M1906.32,1325.66L1902.77,1301.68C1902.77,1301.68 2076.2,1222.56 2123.34,1247.1C2170.47,1271.65 2044.78,1316.82 1906.32,1325.66Z" style="fill:url(#_Linear72);"/>
        <path d="M1902.88,1301.6L1906.32,1325.66C1906.32,1325.66 1843.97,1333.52 1839.06,1331.06C1834.15,1328.61 1817.94,1317.81 1828.25,1307.5C1838.57,1297.18 1888.65,1296.69 1902.88,1301.6Z" style="fill:url(#_Linear73);"/>
        <path d="M2047.79,1304.06L2044.36,1327.13C2044.36,1327.13 2106.71,1334.99 2111.62,1332.54C2116.53,1330.08 2132.74,1319.28 2122.42,1308.97C2112.11,1298.66 2062.03,1299.15 2047.79,1304.06Z" style="fill:url(#_Linear74);"/>
        <path d="M1955.42,1108.65L1974.08,1140.56L1988.81,1108.65L1988.81,1086.06L1955.42,1086.06L1955.42,1108.65Z" style="fill:url(#_Linear75);"/>
        <path d="M1964.83,1099.11C1964.83,1099.11 1941.63,1084.45 1939,1066.42C1936.36,1048.39 1936.37,1033.59 1942.43,1032.22C1948.48,1030.86 1988.89,1021.58 1991.24,1022.81C1993.58,1024.03 2001.88,1047.03 2002.27,1055.49C2003.04,1072.35 1985.2,1097.7 1979.98,1100.63C1974.75,1103.56 1964.83,1099.11 1964.83,1099.11Z" style="fill:url(#_Linear76);"/>
        <path d="M1939.39,1068.46C1939.39,1068.46 1931.11,1056.02 1928.91,1041.87C1925.48,1019.83 1936.26,1008.59 1941.6,1006.01C1972.05,991.279 1977.79,1006.61 2003.81,996.793C2003.81,996.793 2009.97,1010.51 2008.42,1024.44C2006.12,1045.18 2001.51,1056.7 2001.51,1056.7C2001.51,1056.7 2001.51,1033.66 1985.86,1032.54C1978.73,1032.04 1953.46,1038.93 1947.56,1032.54C1947.56,1032.54 1935.63,1034.17 1939.39,1068.46Z" style="fill:url(#_Linear77);"/>
        <path d="M2310.64,1172.85C2305.05,1169.9 2298.67,1168.03 2294.24,1163.51C2286.3,1155.4 2287.34,1141.73 2280.42,1132.73C2274.02,1124.4 2262.2,1121.85 2255.46,1113.79C2251.71,1109.29 2248.78,1102.71 2242.94,1102.37C2236.95,1102.02 2233.01,1109.32 2234.02,1115.24C2235.02,1121.16 2239.1,1125.99 2242.29,1131.07C2247.65,1139.6 2242.06,1146.23 2242.49,1156.29C2242.99,1168.11 2258.47,1171.41 2264.13,1181.81C2270.49,1193.52 2258.72,1200.83 2268.9,1215.79C2276.69,1227.23 2285.8,1228.84 2290.66,1242.6C2294.66,1253.92 2312.56,1255.04 2323.09,1249.28C2351.88,1233.52 2333.08,1184.71 2310.64,1172.85Z" style="fill:url(#_Linear78);"/>
        <path d="M2323.54,1238.47C2318.37,1231.28 2313.29,1224.03 2308.27,1216.75C2307.96,1210.64 2307.63,1204.52 2307.27,1198.41C2307.03,1194.25 2307.71,1188.51 2306.02,1184.69C2305.84,1184.29 2305.22,1184.05 2304.81,1184.2C2304.69,1184.24 2304.57,1184.29 2304.46,1184.33C2304.05,1184.48 2303.61,1184.88 2303.67,1185.36C2303.68,1185.47 2303.69,1185.57 2303.7,1185.67C2303.79,1186.4 2304.25,1188.85 2304.62,1190.12C2304.71,1191.5 2304.79,1192.88 2304.88,1194.27C2305.03,1196.68 2305.17,1199.1 2305.31,1201.52C2305.54,1205.46 2305.74,1209.41 2305.94,1213.35C2295.76,1198.51 2285.84,1183.49 2276.27,1168.25C2276.33,1159.75 2276.13,1151.26 2275.67,1142.78C2275.6,1141.41 2273.45,1141.4 2273.53,1142.78C2273.92,1150.11 2274.11,1157.45 2274.13,1164.79C2265.76,1151.38 2257.61,1137.82 2249.72,1124.12C2249.04,1122.92 2247.18,1124 2247.87,1125.2C2255.55,1138.54 2263.48,1151.74 2271.61,1164.81L2259.98,1156.18C2258.87,1155.36 2257.8,1157.22 2258.9,1158.03C2264.15,1161.93 2269.41,1165.83 2274.66,1169.72L2274.67,1169.73C2283.88,1184.38 2293.41,1198.83 2303.18,1213.11C2296.97,1209.13 2290.53,1205.6 2283.78,1202.54C2282.53,1201.98 2281.44,1203.82 2282.7,1204.39C2291.01,1208.16 2298.89,1212.62 2306.39,1217.81C2311.43,1225.1 2316.51,1232.36 2321.69,1239.55C2322.49,1240.66 2324.35,1239.59 2323.54,1238.47Z" style="fill:rgb(45,150,120);fill-rule:nonzero;"/>
        <path d="M2356.28,1194C2355.83,1187.74 2354.05,1181.38 2355.53,1175.28C2358.19,1164.32 2370.25,1158.02 2374.2,1147.46C2377.85,1137.69 2373.78,1126.39 2377.04,1116.48C2378.85,1110.96 2382.86,1105.03 2380.07,1099.93C2377.22,1094.7 2369,1095.22 2364.54,1099.17C2360.08,1103.13 2358.16,1109.11 2355.55,1114.47C2351.19,1123.46 2342.67,1122.23 2334.42,1127.88C2324.72,1134.53 2330.08,1149.3 2324.29,1159.52C2317.77,1171.04 2305.42,1164.97 2298.17,1181.41C2292.63,1193.98 2296.06,1202.5 2287.02,1213.83C2279.59,1223.15 2288.06,1238.82 2298.45,1244.66C2326.85,1260.63 2358.08,1219.13 2356.28,1194Z" style="fill:url(#_Linear79);"/>
        <path d="M2307.79,1239.35C2311.12,1231.22 2314.56,1223.14 2318.05,1215.07C2323.04,1211.6 2328.02,1208.12 2332.98,1204.6C2336.36,1202.21 2341.55,1199.76 2343.88,1196.33C2344.12,1195.98 2343.99,1195.32 2343.66,1195.06C2343.56,1194.98 2343.46,1194.9 2343.36,1194.82C2343.03,1194.56 2342.45,1194.4 2342.08,1194.7L2341.84,1194.89C2341.27,1195.36 2339.44,1197.03 2338.57,1198.01C2337.45,1198.81 2336.33,1199.61 2335.21,1200.4C2333.26,1201.8 2331.29,1203.19 2329.33,1204.58C2326.13,1206.84 2322.91,1209.08 2319.69,1211.33C2326.84,1194.95 2334.29,1178.7 2342.1,1162.63C2349.28,1158.21 2356.33,1153.58 2363.24,1148.74C2364.35,1147.96 2363.23,1146.14 2362.11,1146.93C2356.14,1151.12 2350.06,1155.13 2343.88,1159C2350.78,1144.91 2357.92,1130.92 2365.32,1117.07C2365.97,1115.86 2364.08,1114.87 2363.43,1116.08C2356.23,1129.56 2349.28,1143.18 2342.55,1156.9L2343.7,1142.57C2343.81,1141.2 2341.68,1141.27 2341.57,1142.63C2341.05,1149.1 2340.53,1155.57 2340.01,1162.04L2340.01,1162.06C2332.51,1177.52 2325.34,1193.14 2318.44,1208.88C2318.54,1201.55 2318.13,1194.27 2317.16,1186.98C2316.98,1185.63 2314.84,1185.68 2315.03,1187.04C2316.22,1196.02 2316.6,1205 2316.18,1214.05C2312.68,1222.12 2309.24,1230.22 2305.9,1238.36C2305.39,1239.62 2307.27,1240.63 2307.79,1239.35Z" style="fill:rgb(45,150,120);fill-rule:nonzero;"/>
        <path d="M2278.9,1171.75C2282.53,1165.46 2287.58,1159.75 2289.12,1152.67C2291.89,1139.95 2282.53,1127.31 2283.76,1114.35C2284.89,1102.35 2294.82,1092.67 2296.44,1080.72C2297.33,1074.08 2296.16,1065.89 2301.63,1062C2307.24,1058.01 2315.51,1062.69 2318.15,1069.05C2320.78,1075.41 2319.77,1082.59 2319.77,1089.48C2319.77,1101.03 2329.25,1104.04 2334.97,1114.08C2341.69,1125.87 2328.67,1138.51 2329.53,1152.06C2330.49,1167.31 2346.39,1167.23 2345.63,1187.97C2345.04,1203.82 2337.18,1210.95 2340.86,1227.28C2343.88,1240.71 2327.18,1252.72 2313.44,1253.55C2275.87,1255.81 2264.35,1196.95 2278.9,1171.75Z" style="fill:url(#_Linear80);"/>
        <path d="M2306.41,1243.32C2307.05,1233.2 2307.55,1223.06 2307.99,1212.92C2304.55,1206.8 2301.14,1200.66 2297.76,1194.51C2295.46,1190.32 2291.3,1185.16 2290.61,1180.42C2290.54,1179.93 2291,1179.31 2291.48,1179.21C2291.63,1179.18 2291.77,1179.15 2291.91,1179.12C2292.39,1179.01 2293.06,1179.13 2293.3,1179.64C2293.35,1179.74 2293.4,1179.85 2293.45,1179.96C2293.82,1180.72 2294.87,1183.38 2295.28,1184.84C2296.04,1186.23 2296.8,1187.63 2297.56,1189.02C2298.89,1191.46 2300.23,1193.89 2301.57,1196.32C2303.75,1200.29 2305.96,1204.25 2308.18,1208.2C2309,1187.58 2309.46,1166.94 2309.46,1146.3C2304.22,1138.09 2299.24,1129.73 2294.5,1121.21C2293.74,1119.83 2295.82,1118.51 2296.59,1119.9C2300.68,1127.26 2304.97,1134.5 2309.43,1141.64C2309.38,1123.51 2309.01,1105.38 2308.31,1087.25C2308.25,1085.67 2310.71,1085.59 2310.77,1087.18C2311.46,1104.82 2311.81,1122.47 2311.88,1140.12L2317.92,1124.65C2318.49,1123.17 2320.67,1124.33 2320.1,1125.79C2317.37,1132.77 2314.65,1139.76 2311.93,1146.75L2311.92,1146.77C2311.91,1166.61 2311.48,1186.45 2310.71,1206.28C2314.3,1198.63 2318.41,1191.27 2323.09,1184.18C2323.96,1182.87 2326.15,1184 2325.27,1185.32C2319.5,1194.05 2314.58,1203.19 2310.45,1212.8C2310.01,1222.96 2309.51,1233.1 2308.87,1243.25C2308.77,1244.81 2306.31,1244.91 2306.41,1243.32Z" style="fill:rgb(45,150,120);fill-rule:nonzero;"/>
        <path d="M2266.99,1250.34L2284.71,1320.47L2340.2,1320.47L2355.61,1250.34L2266.99,1250.34Z" style="fill:url(#_Linear81);"/>
        <path d="M2356.77,1253.42L2266.6,1253.42C2265.88,1253.42 2265.23,1253.14 2264.75,1252.69C2264.23,1252.19 2263.9,1251.5 2263.9,1250.73C2263.9,1249.98 2264.21,1249.31 2264.69,1248.82C2265.18,1248.33 2265.86,1248.03 2266.6,1248.03L2356.77,1248.03C2357.29,1248.03 2357.78,1248.18 2358.19,1248.44C2358.96,1248.91 2359.46,1249.76 2359.46,1250.73C2359.46,1251.32 2359.27,1251.87 2358.95,1252.31C2358.46,1252.99 2357.66,1253.42 2356.77,1253.42Z" style="fill:url(#_Linear82);"/>
        <g transform="matrix(0.5,0,0,0.5,0,0)">
            <circle cx="2175.93" cy="831.63" r="124.529" style="fill:rgb(238,238,255);"/>
        </g>
    </g>
    <defs>
        <linearGradient id="_Linear1" x1="0" y1="0" x2="1" y2="0" gradientUnits="userSpaceOnUse" gradientTransform="matrix(3235.34,1617.67,-1617.67,3235.34,-219,53)"><stop offset="0" style="stop-color:white;stop-opacity:1"/><stop offset="1" style="stop-color:rgb(209,209,255);stop-opacity:1"/></linearGradient>
        <linearGradient id="_Linear2" x1="0" y1="0" x2="1" y2="0" gradientUnits="userSpaceOnUse" gradientTransform="matrix(-4460,2176,-2176,-4460,3629.59,190.719)"><stop offset="0" style="stop-color:white;stop-opacity:1"/><stop offset="1" style="stop-color:rgb(219,219,255);stop-opacity:1"/></linearGradient>
        <linearGradient id="_Linear3" x1="0" y1="0" x2="1" y2="0" gradientUnits="userSpaceOnUse" gradientTransform="matrix(1592.87,0,0,1592.87,917.162,1357.08)"><stop offset="0" style="stop-color:rgb(68,165,82);stop-opacity:1"/><stop offset="1" style="stop-color:rgb(121,226,121);stop-opacity:1"/></linearGradient>
        <linearGradient id="_Linear4" x1="0" y1="0" x2="1" y2="0" gradientUnits="userSpaceOnUse" gradientTransform="matrix(-1728.29,-3.22442,3.22442,-1728.29,2510.01,1323.46)"><stop offset="0" style="stop-color:rgb(68,165,82);stop-opacity:1"/><stop offset="1" style="stop-color:rgb(121,226,121);stop-opacity:1"/></linearGradient>
        <linearGradient id="_Linear5" x1="0" y1="0" x2="1" y2="0" gradientUnits="userSpaceOnUse" gradientTransform="matrix(-262.529,344.9,344.9,262.529,1389.05,1259.63)"><stop offset="0" style="stop-color:rgb(47,147,75);stop-opacity:1"/><stop offset="1" style="stop-color:rgb(255,237,126);stop-opacity:1"/></linearGradient>
        <linearGradient id="_Linear6" x1="0" y1="0" x2="1" y2="0" gradientUnits="userSpaceOnUse" gradientTransform="matrix(-278.078,-6.07632,-6.07632,278.078,1261.13,1233.54)"><stop offset="0" style="stop-color:rgb(47,147,75);stop-opacity:1"/><stop offset="1" style="stop-color:rgb(255,237,126);stop-opacity:1"/></linearGradient>
        <linearGradient id="_Linear7" x1="0" y1="0" x2="1" y2="0" gradientUnits="userSpaceOnUse" gradientTransform="matrix(-231.369,258.326,258.326,231.369,1353.43,1319.05)"><stop offset="0" style="stop-color:rgb(47,147,75);stop-opacity:1"/><stop offset="1" style="stop-color:rgb(255,237,126);stop-opacity:1"/></linearGradient>
        <linearGradient id="_Linear8" x1="0" y1="0" x2="1" y2="0" gradientUnits="userSpaceOnUse" gradientTransform="matrix(402.227,0,0,402.227,1298.05,887.923)"><stop offset="0" style="stop-color:rgb(189,114,221);stop-opacity:1"/><stop offset="1" style="stop-color:rgb(80,77,182);stop-opacity:1"/></linearGradient>
        <linearGradient id="_Linear9" x1="0" y1="0" x2="1" y2="0" gradientUnits="userSpaceOnUse" gradientTransform="matrix(435.741,-1137.69,1137.69,435.741,1328.75,1330.97)"><stop offset="0" style="stop-color:white;stop-opacity:1"/><stop offset="1" style="stop-color:rgb(209,209,255);stop-opacity:1"/></linearGradient>
        <linearGradient id="_Linear10" x1="0" y1="0" x2="1" y2="0" gradientUnits="userSpaceOnUse" gradientTransform="matrix(10.9474,0,0,10.9474,1306.82,666.227)"><stop offset="0" style="stop-color:rgb(255,212,112);stop-opacity:1"/><stop offset="1" style="stop-color:rgb(255,100,33);stop-opacity:1"/></linearGradient>
        <linearGradient id="_Linear11" x1="0" y1="0" x2="1" y2="0" gradientUnits="userSpaceOnUse" gradientTransform="matrix(-64.9767,103.198,-103.198,-64.9767,1595.58,831.591)"><stop offset="0" style="stop-color:rgb(255,212,112);stop-opacity:1"/><stop offset="1" style="stop-color:rgb(255,100,33);stop-opacity:1"/></linearGradient>
        <linearGradient id="_Linear12" x1="0" y1="0" x2="1" y2="0" gradientUnits="userSpaceOnUse" gradientTransform="matrix(-34.3994,90.7762,-90.7762,-34.3994,1571.52,735.278)"><stop offset="0" style="stop-color:rgb(255,235,219);stop-opacity:1"/><stop offset="1" style="stop-color:rgb(211,147,100);stop-opacity:1"/></linearGradient>
        <linearGradient id="_Linear13" x1="0" y1="0" x2="1" y2="0" gradientUnits="userSpaceOnUse" gradientTransform="matrix(118.328,0.788851,-0.788851,118.328,1445.81,670.981)"><stop offset="0" style="stop-color:rgb(170,117,198);stop-opacity:1"/><stop offset="1" style="stop-color:rgb(80,77,182);stop-opacity:1"/></linearGradient>
        <linearGradient id="_Linear14" x1="0" y1="0" x2="1" y2="0" gradientUnits="userSpaceOnUse" gradientTransform="matrix(-4.13934,-242.156,242.156,-4.13934,1568.29,866.032)"><stop offset="0" style="stop-color:rgb(170,117,198);stop-opacity:1"/><stop offset="1" style="stop-color:rgb(80,77,182);stop-opacity:1"/></linearGradient>
        <linearGradient id="_Linear15" x1="0" y1="0" x2="1" y2="0" gradientUnits="userSpaceOnUse" gradientTransform="matrix(405.886,-4.13467,4.13467,405.886,1489.78,665.483)"><stop offset="0" style="stop-color:rgb(47,147,75);stop-opacity:1"/><stop offset="1" style="stop-color:rgb(255,237,126);stop-opacity:1"/></linearGradient>
        <linearGradient id="_Linear16" x1="0" y1="0" x2="1" y2="0" gradientUnits="userSpaceOnUse" gradientTransform="matrix(-55.0944,-6.74712e-16,6.74712e-16,-55.0944,1763.7,666.7)"><stop offset="0" style="stop-color:rgb(170,117,198);stop-opacity:1"/><stop offset="1" style="stop-color:rgb(80,77,182);stop-opacity:1"/></linearGradient>
        <linearGradient id="_Linear17" x1="0" y1="0" x2="1" y2="0" gradientUnits="userSpaceOnUse" gradientTransform="matrix(7.71321,0.550944,-0.550944,7.71321,1753.72,665.212)"><stop offset="0" style="stop-color:rgb(170,117,198);stop-opacity:1"/><stop offset="1" style="stop-color:rgb(114,80,161);stop-opacity:1"/></linearGradient>
        <linearGradient id="_Linear18" x1="0" y1="0" x2="1" y2="0" gradientUnits="userSpaceOnUse" gradientTransform="matrix(105.299,0,0,105.299,1735.63,665.178)"><stop offset="0" style="stop-color:rgb(47,147,75);stop-opacity:1"/><stop offset="1" style="stop-color:rgb(255,237,126);stop-opacity:1"/></linearGradient>
        <linearGradient id="_Linear19" x1="0" y1="0" x2="1" y2="0" gradientUnits="userSpaceOnUse" gradientTransform="matrix(30.9494,68.6514,-68.6514,30.9494,1561.59,739.902)"><stop offset="0" style="stop-color:rgb(47,147,75);stop-opacity:1"/><stop offset="1" style="stop-color:rgb(124,168,63);stop-opacity:1"/></linearGradient>
        <linearGradient id="_Linear20" x1="0" y1="0" x2="1" y2="0" gradientUnits="userSpaceOnUse" gradientTransform="matrix(30.3019,67.215,-67.215,30.3019,1564.4,738.986)"><stop offset="0" style="stop-color:rgb(47,147,75);stop-opacity:1"/><stop offset="1" style="stop-color:rgb(255,237,126);stop-opacity:1"/></linearGradient>
        <linearGradient id="_Linear21" x1="0" y1="0" x2="1" y2="0" gradientUnits="userSpaceOnUse" gradientTransform="matrix(435.741,-1137.69,1137.69,435.741,1328.75,1330.97)"><stop offset="0" style="stop-color:rgb(244,242,242);stop-opacity:1"/><stop offset="1" style="stop-color:rgb(202,200,242);stop-opacity:1"/></linearGradient>
        <linearGradient id="_Linear22" x1="0" y1="0" x2="1" y2="0" gradientUnits="userSpaceOnUse" gradientTransform="matrix(-4.13934,-242.156,242.156,-4.13934,1568.29,866.032)"><stop offset="0" style="stop-color:rgb(165,112,189);stop-opacity:1"/><stop offset="1" style="stop-color:rgb(79,75,174);stop-opacity:1"/></linearGradient>
        <linearGradient id="_Linear23" x1="0" y1="0" x2="1" y2="0" gradientUnits="userSpaceOnUse" gradientTransform="matrix(405.886,-4.13467,4.13467,405.886,1489.78,665.483)"><stop offset="0" style="stop-color:rgb(47,142,72);stop-opacity:1"/><stop offset="1" style="stop-color:rgb(244,225,121);stop-opacity:1"/></linearGradient>
        <linearGradient id="_Linear24" x1="0" y1="0" x2="1" y2="0" gradientUnits="userSpaceOnUse" gradientTransform="matrix(-55.0944,-6.74712e-16,6.74712e-16,-55.0944,1763.7,666.7)"><stop offset="0" style="stop-color:rgb(165,112,189);stop-opacity:1"/><stop offset="1" style="stop-color:rgb(79,75,174);stop-opacity:1"/></linearGradient>
        <linearGradient id="_Linear25" x1="0" y1="0" x2="1" y2="0" gradientUnits="userSpaceOnUse" gradientTransform="matrix(435.741,-1137.69,1137.69,435.741,1328.75,1330.97)"><stop offset="0" style="stop-color:rgb(228,228,228);stop-opacity:1"/><stop offset="1" style="stop-color:rgb(188,188,228);stop-opacity:1"/></linearGradient>
        <linearGradient id="_Linear26" x1="0" y1="0" x2="1" y2="0" gradientUnits="userSpaceOnUse" gradientTransform="matrix(118.328,0.788851,-0.788851,118.328,1445.81,670.981)"><stop offset="0" style="stop-color:rgb(154,105,179);stop-opacity:1"/><stop offset="1" style="stop-color:rgb(72,70,163);stop-opacity:1"/></linearGradient>
        <linearGradient id="_Linear27" x1="0" y1="0" x2="1" y2="0" gradientUnits="userSpaceOnUse" gradientTransform="matrix(405.886,-4.13467,4.13467,405.886,1489.78,665.483)"><stop offset="0" style="stop-color:rgb(42,133,68);stop-opacity:1"/><stop offset="1" style="stop-color:rgb(228,212,114);stop-opacity:1"/></linearGradient>
        <linearGradient id="_Linear28" x1="0" y1="0" x2="1" y2="0" gradientUnits="userSpaceOnUse" gradientTransform="matrix(405.886,-4.13467,4.13467,405.886,1489.78,665.483)"><stop offset="0" style="stop-color:rgb(42,128,66);stop-opacity:1"/><stop offset="1" style="stop-color:rgb(218,202,109);stop-opacity:1"/></linearGradient>
        <linearGradient id="_Linear29" x1="0" y1="0" x2="1" y2="0" gradientUnits="userSpaceOnUse" gradientTransform="matrix(435.741,-1137.69,1137.69,435.741,1328.75,1330.97)"><stop offset="0" style="stop-color:rgb(228,228,228);stop-opacity:1"/><stop offset="1" style="stop-color:rgb(188,188,228);stop-opacity:1"/></linearGradient>
        <linearGradient id="_Linear30" x1="0" y1="0" x2="1" y2="0" gradientUnits="userSpaceOnUse" gradientTransform="matrix(-4.13934,-242.156,242.156,-4.13934,1568.29,866.032)"><stop offset="0" style="stop-color:rgb(154,105,179);stop-opacity:1"/><stop offset="1" style="stop-color:rgb(72,70,163);stop-opacity:1"/></linearGradient>
        <linearGradient id="_Linear31" x1="0" y1="0" x2="1" y2="0" gradientUnits="userSpaceOnUse" gradientTransform="matrix(405.886,-4.13467,4.13467,405.886,1489.78,665.483)"><stop offset="0" style="stop-color:rgb(42,133,68);stop-opacity:1"/><stop offset="1" style="stop-color:rgb(228,212,114);stop-opacity:1"/></linearGradient>
        <linearGradient id="_Linear32" x1="0" y1="0" x2="1" y2="0" gradientUnits="userSpaceOnUse" gradientTransform="matrix(-4.13934,-242.156,242.156,-4.13934,1568.29,866.032)"><stop offset="0" style="stop-color:rgb(147,100,170);stop-opacity:1"/><stop offset="1" style="stop-color:rgb(70,66,156);stop-opacity:1"/></linearGradient>
        <linearGradient id="_Linear33" x1="0" y1="0" x2="1" y2="0" gradientUnits="userSpaceOnUse" gradientTransform="matrix(405.886,-4.13467,4.13467,405.886,1489.78,665.483)"><stop offset="0" style="stop-color:rgb(42,128,66);stop-opacity:1"/><stop offset="1" style="stop-color:rgb(218,202,109);stop-opacity:1"/></linearGradient>
        <linearGradient id="_Linear34" x1="0" y1="0" x2="1" y2="0" gradientUnits="userSpaceOnUse" gradientTransform="matrix(-89.8207,-18.1552,18.1552,-89.8207,1632.05,812.842)"><stop offset="0" style="stop-color:rgb(255,235,219);stop-opacity:1"/><stop offset="1" style="stop-color:rgb(211,147,100);stop-opacity:1"/></linearGradient>
        <linearGradient id="_Linear35" x1="0" y1="0" x2="1" y2="0" gradientUnits="userSpaceOnUse" gradientTransform="matrix(10.3915,-24.0079,24.0079,10.3915,1514.22,1015.75)"><stop offset="0" style="stop-color:rgb(226,202,186);stop-opacity:1"/><stop offset="1" style="stop-color:rgb(191,124,73);stop-opacity:1"/></linearGradient>
        <linearGradient id="_Linear38" x1="0" y1="0" x2="1" y2="0" gradientUnits="userSpaceOnUse" gradientTransform="matrix(-68.7988,-351.16,351.16,-68.7988,1540.28,1518.3)"><stop offset="0" style="stop-color:rgb(128,128,128);stop-opacity:1"/><stop offset="1" style="stop-color:rgb(59,59,52);stop-opacity:1"/></linearGradient>
        <linearGradient id="_Linear39" x1="0" y1="0" x2="1" y2="0" gradientUnits="userSpaceOnUse" gradientTransform="matrix(-76.9944,-21.0696,-21.0696,76.9944,1573.63,949.069)"><stop offset="0" style="stop-color:rgb(255,235,219);stop-opacity:1"/><stop offset="1" style="stop-color:rgb(211,147,100);stop-opacity:1"/></linearGradient>
        <linearGradient id="_Linear40" x1="0" y1="0" x2="1" y2="0" gradientUnits="userSpaceOnUse" gradientTransform="matrix(-103.601,-28.3505,-28.3505,103.601,1587.42,924.998)"><stop offset="0" style="stop-color:rgb(128,128,128);stop-opacity:1"/><stop offset="1" style="stop-color:rgb(59,59,52);stop-opacity:1"/></linearGradient>
        <linearGradient id="_Linear41" x1="0" y1="0" x2="1" y2="0" gradientUnits="userSpaceOnUse" gradientTransform="matrix(-232.196,1.91108,-1.91108,-232.196,1608.49,1019.47)"><stop offset="0" style="stop-color:rgb(255,212,112);stop-opacity:1"/><stop offset="1" style="stop-color:rgb(255,100,33);stop-opacity:1"/></linearGradient>
        <linearGradient id="_Linear42" x1="0" y1="0" x2="1" y2="0" gradientUnits="userSpaceOnUse" gradientTransform="matrix(435.741,-1137.69,1137.69,435.741,1328.75,1330.97)"><stop offset="0" style="stop-color:rgb(228,228,228);stop-opacity:1"/><stop offset="1" style="stop-color:rgb(188,188,228);stop-opacity:1"/></linearGradient>
        <linearGradient id="_Linear43" x1="0" y1="0" x2="1" y2="0" gradientUnits="userSpaceOnUse" gradientTransform="matrix(-232.196,1.91108,-1.91108,-232.196,1608.49,1019.47)"><stop offset="0" style="stop-color:rgb(228,191,100);stop-opacity:1"/><stop offset="1" style="stop-color:rgb(228,89,29);stop-opacity:1"/></linearGradient>
        <linearGradient id="_Linear44" x1="0" y1="0" x2="1" y2="0" gradientUnits="userSpaceOnUse" gradientTransform="matrix(453.806,-329.926,329.926,453.806,1806.7,937.427)"><stop offset="0" style="stop-color:white;stop-opacity:1"/><stop offset="1" style="stop-color:rgb(209,209,255);stop-opacity:1"/></linearGradient>
        <linearGradient id="_Linear45" x1="0" y1="0" x2="1" y2="0" gradientUnits="userSpaceOnUse" gradientTransform="matrix(21.7681,-56.8347,56.8347,21.7681,1960.5,685.476)"><stop offset="0" style="stop-color:rgb(189,114,221);stop-opacity:1"/><stop offset="1" style="stop-color:rgb(80,77,182);stop-opacity:1"/></linearGradient>
        <linearGradient id="_Linear46" x1="0" y1="0" x2="1" y2="0" gradientUnits="userSpaceOnUse" gradientTransform="matrix(14.5554,-38.0031,38.0031,14.5554,1942.63,689.878)"><stop offset="0" style="stop-color:rgb(189,114,221);stop-opacity:1"/><stop offset="1" style="stop-color:rgb(80,77,182);stop-opacity:1"/></linearGradient>
        <linearGradient id="_Linear47" x1="0" y1="0" x2="1" y2="0" gradientUnits="userSpaceOnUse" gradientTransform="matrix(453.806,-329.926,329.926,453.806,1806.7,937.427)"><stop offset="0" style="stop-color:rgb(228,228,228);stop-opacity:1"/><stop offset="1" style="stop-color:rgb(188,188,228);stop-opacity:1"/></linearGradient>
        <linearGradient id="_Linear48" x1="0" y1="0" x2="1" y2="0" gradientUnits="userSpaceOnUse" gradientTransform="matrix(422.667,-236.641,236.641,422.667,1860.22,873.717)"><stop offset="0" style="stop-color:rgb(255,193,214);stop-opacity:1"/><stop offset="1" style="stop-color:rgb(207,47,77);stop-opacity:1"/></linearGradient>
        <linearGradient id="_Linear49" x1="0" y1="0" x2="1" y2="0" gradientUnits="userSpaceOnUse" gradientTransform="matrix(67.0899,-37.562,37.562,67.0899,2014.68,777.826)"><stop offset="0" style="stop-color:white;stop-opacity:1"/><stop offset="1" style="stop-color:rgb(209,209,255);stop-opacity:1"/></linearGradient>
        <linearGradient id="_Linear50" x1="0" y1="0" x2="1" y2="0" gradientUnits="userSpaceOnUse" gradientTransform="matrix(-253.791,-281.863,281.863,-253.791,2239.27,845.971)"><stop offset="0" style="stop-color:white;stop-opacity:1"/><stop offset="1" style="stop-color:rgb(209,209,255);stop-opacity:1"/></linearGradient>
        <linearGradient id="_Linear51" x1="0" y1="0" x2="1" y2="0" gradientUnits="userSpaceOnUse" gradientTransform="matrix(30.1852,56.5655,-56.5655,30.1852,1418.33,174.461)"><stop offset="0" style="stop-color:rgb(255,212,130);stop-opacity:1"/><stop offset="1" style="stop-color:rgb(255,117,47);stop-opacity:1"/></linearGradient>
        <linearGradient id="_Linear52" x1="0" y1="0" x2="1" y2="0" gradientUnits="userSpaceOnUse" gradientTransform="matrix(30.1852,56.5655,-56.5655,30.1852,1418.33,174.461)"><stop offset="0" style="stop-color:rgb(181,156,112);stop-opacity:1"/><stop offset="1" style="stop-color:rgb(181,86,41);stop-opacity:1"/></linearGradient>
        <linearGradient id="_Linear53" x1="0" y1="0" x2="1" y2="0" gradientUnits="userSpaceOnUse" gradientTransform="matrix(30.1852,56.5655,-56.5655,30.1852,1785.72,938.116)"><stop offset="0" style="stop-color:rgb(255,212,130);stop-opacity:1"/><stop offset="1" style="stop-color:rgb(255,117,47);stop-opacity:1"/></linearGradient>
        <linearGradient id="_Linear54" x1="0" y1="0" x2="1" y2="0" gradientUnits="userSpaceOnUse" gradientTransform="matrix(30.1852,56.5655,-56.5655,30.1852,1785.72,938.116)"><stop offset="0" style="stop-color:rgb(181,156,112);stop-opacity:1"/><stop offset="1" style="stop-color:rgb(181,86,41);stop-opacity:1"/></linearGradient>
        <linearGradient id="_Linear55" x1="0" y1="0" x2="1" y2="0" gradientUnits="userSpaceOnUse" gradientTransform="matrix(62.6091,117.326,-117.326,62.6091,1061.27,366.88)"><stop offset="0" style="stop-color:rgb(255,212,130);stop-opacity:1"/><stop offset="1" style="stop-color:rgb(255,117,47);stop-opacity:1"/></linearGradient>
        <linearGradient id="_Linear56" x1="0" y1="0" x2="1" y2="0" gradientUnits="userSpaceOnUse" gradientTransform="matrix(62.6091,117.326,-117.326,62.6091,1061.27,366.88)"><stop offset="0" style="stop-color:rgb(181,156,112);stop-opacity:1"/><stop offset="1" style="stop-color:rgb(181,86,41);stop-opacity:1"/></linearGradient>
        <linearGradient id="_Linear57" x1="0" y1="0" x2="1" y2="0" gradientUnits="userSpaceOnUse" gradientTransform="matrix(84.6279,151.354,151.354,-84.6279,2037.89,1062.6)"><stop offset="0" style="stop-color:rgb(47,147,75);stop-opacity:1"/><stop offset="1" style="stop-color:rgb(255,237,126);stop-opacity:1"/></linearGradient>
        <linearGradient id="_Linear58" x1="0" y1="0" x2="1" y2="0" gradientUnits="userSpaceOnUse" gradientTransform="matrix(-49.5731,-88.6595,88.6595,-49.5731,1210.48,741.347)"><stop offset="0" style="stop-color:rgb(47,147,75);stop-opacity:1"/><stop offset="1" style="stop-color:rgb(255,237,126);stop-opacity:1"/></linearGradient>
        <linearGradient id="_Linear59" x1="0" y1="0" x2="1" y2="0" gradientUnits="userSpaceOnUse" gradientTransform="matrix(54.2371,97.001,97.001,-54.2371,1917.82,337.69)"><stop offset="0" style="stop-color:rgb(47,147,75);stop-opacity:1"/><stop offset="1" style="stop-color:rgb(255,237,126);stop-opacity:1"/></linearGradient>
        <linearGradient id="_Linear60" x1="0" y1="0" x2="1" y2="0" gradientUnits="userSpaceOnUse" gradientTransform="matrix(46.2827,63.8585,-63.8585,46.2827,1682.13,342.592)"><stop offset="0" style="stop-color:rgb(170,117,198);stop-opacity:1"/><stop offset="1" style="stop-color:rgb(80,77,182);stop-opacity:1"/></linearGradient>
        <linearGradient id="_Linear61" x1="0" y1="0" x2="1" y2="0" gradientUnits="userSpaceOnUse" gradientTransform="matrix(46.2827,63.8585,-63.8585,46.2827,2324.48,764.277)"><stop offset="0" style="stop-color:rgb(170,117,198);stop-opacity:1"/><stop offset="1" style="stop-color:rgb(80,77,182);stop-opacity:1"/></linearGradient>
        <linearGradient id="_Linear62" x1="0" y1="0" x2="1" y2="0" gradientUnits="userSpaceOnUse" gradientTransform="matrix(80.0655,110.47,-110.47,80.0655,1043.35,935.875)"><stop offset="0" style="stop-color:rgb(170,117,198);stop-opacity:1"/><stop offset="1" style="stop-color:rgb(80,77,182);stop-opacity:1"/></linearGradient>
        <linearGradient id="_Linear63" x1="0" y1="0" x2="1" y2="0" gradientUnits="userSpaceOnUse" gradientTransform="matrix(194.861,-107.043,107.043,194.861,2063.85,509.854)"><stop offset="0" style="stop-color:rgb(170,117,198);stop-opacity:1"/><stop offset="1" style="stop-color:rgb(80,77,182);stop-opacity:1"/></linearGradient>
        <linearGradient id="_Linear64" x1="0" y1="0" x2="1" y2="0" gradientUnits="userSpaceOnUse" gradientTransform="matrix(-211.542,188.249,-188.249,-211.542,2229.15,337.783)"><stop offset="0" style="stop-color:rgb(124,225,246);stop-opacity:1"/><stop offset="1" style="stop-color:rgb(0,109,219);stop-opacity:1"/></linearGradient>
        <linearGradient id="_Linear65" x1="0" y1="0" x2="1" y2="0" gradientUnits="userSpaceOnUse" gradientTransform="matrix(25.0177,-94.4955,94.4955,25.0177,2143.04,563.617)"><stop offset="0" style="stop-color:rgb(170,117,198);stop-opacity:1"/><stop offset="1" style="stop-color:rgb(80,77,182);stop-opacity:1"/></linearGradient>
        <linearGradient id="_Linear66" x1="0" y1="0" x2="1" y2="0" gradientUnits="userSpaceOnUse" gradientTransform="matrix(-211.542,188.249,-188.249,-211.542,2258.06,370.268)"><stop offset="0" style="stop-color:rgb(124,225,246);stop-opacity:1"/><stop offset="1" style="stop-color:rgb(0,109,219);stop-opacity:1"/></linearGradient>
        <linearGradient id="_Linear67" x1="0" y1="0" x2="1" y2="0" gradientUnits="userSpaceOnUse" gradientTransform="matrix(53.0049,0,0,53.0049,1872.96,1206.32)"><stop offset="0" style="stop-color:rgb(255,235,219);stop-opacity:1"/><stop offset="1" style="stop-color:rgb(211,147,100);stop-opacity:1"/></linearGradient>
        <linearGradient id="_Linear68" x1="0" y1="0" x2="1" y2="0" gradientUnits="userSpaceOnUse" gradientTransform="matrix(-69.1195,-18.0479,18.0479,-69.1195,2087.71,1216.81)"><stop offset="0" style="stop-color:rgb(255,235,219);stop-opacity:1"/><stop offset="1" style="stop-color:rgb(211,147,100);stop-opacity:1"/></linearGradient>
        <linearGradient id="_Linear69" x1="0" y1="0" x2="1" y2="0" gradientUnits="userSpaceOnUse" gradientTransform="matrix(-7.04111,185.081,-185.081,-7.04111,1977.54,1073.56)"><stop offset="0" style="stop-color:rgb(124,225,246);stop-opacity:1"/><stop offset="1" style="stop-color:rgb(0,109,219);stop-opacity:1"/></linearGradient>
        <linearGradient id="_Linear70" x1="0" y1="0" x2="1" y2="0" gradientUnits="userSpaceOnUse" gradientTransform="matrix(8.65071e-13,84.0954,-84.0954,8.65071e-13,1975.06,1196.47)"><stop offset="0" style="stop-color:rgb(189,114,221);stop-opacity:1"/><stop offset="1" style="stop-color:rgb(80,77,182);stop-opacity:1"/></linearGradient>
        <linearGradient id="_Linear71" x1="0" y1="0" x2="1" y2="0" gradientUnits="userSpaceOnUse" gradientTransform="matrix(227.342,0,0,227.342,1820.25,1282.07)"><stop offset="0" style="stop-color:rgb(128,128,128);stop-opacity:1"/><stop offset="1" style="stop-color:rgb(59,59,52);stop-opacity:1"/></linearGradient>
        <linearGradient id="_Linear72" x1="0" y1="0" x2="1" y2="0" gradientUnits="userSpaceOnUse" gradientTransform="matrix(230.66,0,0,230.66,1902.77,1284.02)"><stop offset="0" style="stop-color:rgb(128,128,128);stop-opacity:1"/><stop offset="1" style="stop-color:rgb(59,59,52);stop-opacity:1"/></linearGradient>
        <linearGradient id="_Linear73" x1="0" y1="0" x2="1" y2="0" gradientUnits="userSpaceOnUse" gradientTransform="matrix(112.895,-33.7918,33.7918,112.895,1818.84,1330.1)"><stop offset="0" style="stop-color:rgb(255,212,112);stop-opacity:1"/><stop offset="1" style="stop-color:rgb(255,100,33);stop-opacity:1"/></linearGradient>
        <linearGradient id="_Linear74" x1="0" y1="0" x2="1" y2="0" gradientUnits="userSpaceOnUse" gradientTransform="matrix(-103.295,-34.1758,34.1758,-103.295,2132.59,1333.53)"><stop offset="0" style="stop-color:rgb(255,212,112);stop-opacity:1"/><stop offset="1" style="stop-color:rgb(255,100,33);stop-opacity:1"/></linearGradient>
        <linearGradient id="_Linear75" x1="0" y1="0" x2="1" y2="0" gradientUnits="userSpaceOnUse" gradientTransform="matrix(-6.6021,-94.0799,94.0799,-6.6021,1975.35,1143.48)"><stop offset="0" style="stop-color:rgb(226,202,186);stop-opacity:1"/><stop offset="1" style="stop-color:rgb(191,124,73);stop-opacity:1"/></linearGradient>
        <linearGradient id="_Linear76" x1="0" y1="0" x2="1" y2="0" gradientUnits="userSpaceOnUse" gradientTransform="matrix(-14.9759,-109.055,109.055,-14.9759,1977.61,1111.49)"><stop offset="0" style="stop-color:rgb(255,235,219);stop-opacity:1"/><stop offset="1" style="stop-color:rgb(211,147,100);stop-opacity:1"/></linearGradient>
        <linearGradient id="_Linear77" x1="0" y1="0" x2="1" y2="0" gradientUnits="userSpaceOnUse" gradientTransform="matrix(47.6157,-87.1674,87.1674,47.6157,1944.8,1076.81)"><stop offset="0" style="stop-color:rgb(128,128,128);stop-opacity:1"/><stop offset="1" style="stop-color:rgb(59,59,52);stop-opacity:1"/></linearGradient>
        <linearGradient id="_Linear78" x1="0" y1="0" x2="1" y2="0" gradientUnits="userSpaceOnUse" gradientTransform="matrix(-95.2669,-188.91,188.91,-95.2669,2318.07,1242.09)"><stop offset="0" style="stop-color:rgb(47,147,75);stop-opacity:1"/><stop offset="1" style="stop-color:rgb(255,237,126);stop-opacity:1"/></linearGradient>
        <linearGradient id="_Linear79" x1="0" y1="0" x2="1" y2="0" gradientUnits="userSpaceOnUse" gradientTransform="matrix(73.4666,-172.107,172.107,73.4666,2305.51,1243.94)"><stop offset="0" style="stop-color:rgb(47,147,75);stop-opacity:1"/><stop offset="1" style="stop-color:rgb(255,237,126);stop-opacity:1"/></linearGradient>
        <linearGradient id="_Linear80" x1="0" y1="0" x2="1" y2="0" gradientUnits="userSpaceOnUse" gradientTransform="matrix(72.845,0,0,72.845,2272.81,1157.07)"><stop offset="0" style="stop-color:rgb(47,147,75);stop-opacity:1"/><stop offset="1" style="stop-color:rgb(255,237,126);stop-opacity:1"/></linearGradient>
        <linearGradient id="_Linear81" x1="0" y1="0" x2="1" y2="0" gradientUnits="userSpaceOnUse" gradientTransform="matrix(-54.1349,-107.347,107.347,-54.1349,2336.1,1317.01)"><stop offset="0" style="stop-color:rgb(128,128,128);stop-opacity:1"/><stop offset="1" style="stop-color:rgb(59,59,52);stop-opacity:1"/></linearGradient>
        <linearGradient id="_Linear82" x1="0" y1="0" x2="1" y2="0" gradientUnits="userSpaceOnUse" gradientTransform="matrix(-26.0503,-51.6566,51.6566,-26.0503,2320.97,1269.14)"><stop offset="0" style="stop-color:rgb(128,128,128);stop-opacity:1"/><stop offset="1" style="stop-color:rgb(59,59,52);stop-opacity:1"/></linearGradient>
    </defs>
</svg>
